<mxfile modified="2024-02-22T19:13:17.779Z" host="app.diagrams.net" agent="Mozilla/5.0 (Windows NT 10.0; Win64; x64) AppleWebKit/537.36 (KHTML, like Gecko) Chrome/121.0.0.0 Safari/537.36 Edg/121.0.0.0" etag="Ju6TEh81Bagj1TZDavCL" version="23.1.5" type="github">
  <diagram id="Ht1M8jgEwFfnCIfOTk4-" name="Page-1">
    <mxGraphModel dx="1236" dy="526" grid="1" gridSize="10" guides="1" tooltips="1" connect="1" arrows="1" fold="1" page="1" pageScale="1" pageWidth="1169" pageHeight="827" math="0" shadow="0">
      <root>
        <mxCell id="0" />
        <mxCell id="1" parent="0" />
        <mxCell id="4dynubgF51ZRnNJFd6d_-346" value="" style="edgeStyle=elbowEdgeStyle;rounded=0;orthogonalLoop=1;jettySize=auto;html=1;fillColor=#f5f5f5;strokeColor=#666666;startArrow=classic;startFill=1;elbow=vertical;" parent="1" source="UEzPUAAOIrF-is8g5C7q-111" target="UEzPUAAOIrF-is8g5C7q-112" edge="1">
          <mxGeometry relative="1" as="geometry" />
        </mxCell>
        <mxCell id="UEzPUAAOIrF-is8g5C7q-128" style="edgeStyle=orthogonalEdgeStyle;rounded=0;orthogonalLoop=1;jettySize=auto;html=1;startArrow=open;startFill=0;endArrow=open;endFill=0;strokeWidth=2;strokeColor=#808080;" parent="1" source="UEzPUAAOIrF-is8g5C7q-109" target="UEzPUAAOIrF-is8g5C7q-114" edge="1">
          <mxGeometry relative="1" as="geometry">
            <Array as="points">
              <mxPoint x="310.5" y="461.5" />
              <mxPoint x="310.5" y="376.5" />
            </Array>
          </mxGeometry>
        </mxCell>
        <mxCell id="UEzPUAAOIrF-is8g5C7q-124" style="edgeStyle=orthogonalEdgeStyle;rounded=0;orthogonalLoop=1;jettySize=auto;html=1;startArrow=open;startFill=0;endArrow=open;endFill=0;strokeWidth=2;strokeColor=#808080;labelBorderColor=none;" parent="1" source="UEzPUAAOIrF-is8g5C7q-110" target="UEzPUAAOIrF-is8g5C7q-111" edge="1">
          <mxGeometry relative="1" as="geometry">
            <Array as="points">
              <mxPoint x="220" y="241" />
              <mxPoint x="220" y="101" />
            </Array>
          </mxGeometry>
        </mxCell>
        <mxCell id="UEzPUAAOIrF-is8g5C7q-127" style="edgeStyle=orthogonalEdgeStyle;rounded=0;orthogonalLoop=1;jettySize=auto;html=1;startArrow=open;startFill=0;endArrow=open;endFill=0;strokeWidth=2;strokeColor=#808080;" parent="1" source="UEzPUAAOIrF-is8g5C7q-110" target="UEzPUAAOIrF-is8g5C7q-114" edge="1">
          <mxGeometry relative="1" as="geometry">
            <Array as="points">
              <mxPoint x="311.5" y="281.5" />
              <mxPoint x="311.5" y="361.5" />
            </Array>
          </mxGeometry>
        </mxCell>
        <mxCell id="UEzPUAAOIrF-is8g5C7q-126" style="edgeStyle=orthogonalEdgeStyle;rounded=0;orthogonalLoop=1;jettySize=auto;html=1;startArrow=open;startFill=0;endArrow=open;endFill=0;strokeWidth=2;strokeColor=#808080;" parent="1" source="UEzPUAAOIrF-is8g5C7q-113" target="UEzPUAAOIrF-is8g5C7q-114" edge="1">
          <mxGeometry relative="1" as="geometry" />
        </mxCell>
        <mxCell id="UEzPUAAOIrF-is8g5C7q-129" style="edgeStyle=orthogonalEdgeStyle;rounded=0;orthogonalLoop=1;jettySize=auto;html=1;startArrow=open;startFill=0;endArrow=open;endFill=0;strokeWidth=2;strokeColor=#808080;" parent="1" source="UEzPUAAOIrF-is8g5C7q-114" target="UEzPUAAOIrF-is8g5C7q-115" edge="1">
          <mxGeometry relative="1" as="geometry">
            <Array as="points">
              <mxPoint x="510.5" y="391.5" />
              <mxPoint x="510.5" y="391.5" />
            </Array>
          </mxGeometry>
        </mxCell>
        <mxCell id="UEzPUAAOIrF-is8g5C7q-130" style="edgeStyle=orthogonalEdgeStyle;rounded=0;orthogonalLoop=1;jettySize=auto;html=1;startArrow=open;startFill=0;endArrow=open;endFill=0;strokeWidth=2;strokeColor=#808080;" parent="1" source="UEzPUAAOIrF-is8g5C7q-115" target="UEzPUAAOIrF-is8g5C7q-116" edge="1">
          <mxGeometry relative="1" as="geometry">
            <Array as="points">
              <mxPoint x="760" y="352" />
              <mxPoint x="760" y="53" />
            </Array>
          </mxGeometry>
        </mxCell>
        <mxCell id="UEzPUAAOIrF-is8g5C7q-131" style="edgeStyle=orthogonalEdgeStyle;rounded=0;orthogonalLoop=1;jettySize=auto;html=1;startArrow=open;startFill=0;endArrow=open;endFill=0;strokeWidth=2;strokeColor=#808080;" parent="1" source="UEzPUAAOIrF-is8g5C7q-115" target="UEzPUAAOIrF-is8g5C7q-117" edge="1">
          <mxGeometry relative="1" as="geometry">
            <Array as="points">
              <mxPoint x="780" y="361" />
              <mxPoint x="780" y="163" />
            </Array>
          </mxGeometry>
        </mxCell>
        <mxCell id="UEzPUAAOIrF-is8g5C7q-132" style="edgeStyle=orthogonalEdgeStyle;rounded=0;orthogonalLoop=1;jettySize=auto;html=1;startArrow=open;startFill=0;endArrow=open;endFill=0;strokeWidth=2;strokeColor=#808080;" parent="1" source="UEzPUAAOIrF-is8g5C7q-115" target="UEzPUAAOIrF-is8g5C7q-119" edge="1">
          <mxGeometry relative="1" as="geometry">
            <Array as="points">
              <mxPoint x="810" y="372" />
              <mxPoint x="810" y="270" />
            </Array>
          </mxGeometry>
        </mxCell>
        <mxCell id="UEzPUAAOIrF-is8g5C7q-133" style="edgeStyle=orthogonalEdgeStyle;rounded=0;orthogonalLoop=1;jettySize=auto;html=1;startArrow=open;startFill=0;endArrow=open;endFill=0;strokeWidth=2;strokeColor=#808080;" parent="1" source="UEzPUAAOIrF-is8g5C7q-115" target="UEzPUAAOIrF-is8g5C7q-120" edge="1">
          <mxGeometry relative="1" as="geometry">
            <Array as="points">
              <mxPoint x="830" y="382" />
              <mxPoint x="830" y="420" />
            </Array>
          </mxGeometry>
        </mxCell>
        <mxCell id="UEzPUAAOIrF-is8g5C7q-134" style="edgeStyle=orthogonalEdgeStyle;rounded=0;orthogonalLoop=1;jettySize=auto;html=1;startArrow=open;startFill=0;endArrow=open;endFill=0;strokeWidth=2;strokeColor=#808080;" parent="1" source="UEzPUAAOIrF-is8g5C7q-115" target="UEzPUAAOIrF-is8g5C7q-121" edge="1">
          <mxGeometry relative="1" as="geometry">
            <Array as="points">
              <mxPoint x="810" y="391" />
              <mxPoint x="810" y="560" />
            </Array>
          </mxGeometry>
        </mxCell>
        <mxCell id="UEzPUAAOIrF-is8g5C7q-135" style="edgeStyle=orthogonalEdgeStyle;rounded=0;orthogonalLoop=1;jettySize=auto;html=1;startArrow=open;startFill=0;endArrow=open;endFill=0;strokeWidth=2;strokeColor=#808080;" parent="1" source="UEzPUAAOIrF-is8g5C7q-115" target="UEzPUAAOIrF-is8g5C7q-122" edge="1">
          <mxGeometry relative="1" as="geometry">
            <Array as="points">
              <mxPoint x="780" y="401" />
              <mxPoint x="780" y="670" />
            </Array>
          </mxGeometry>
        </mxCell>
        <mxCell id="UEzPUAAOIrF-is8g5C7q-136" style="edgeStyle=orthogonalEdgeStyle;rounded=0;orthogonalLoop=1;jettySize=auto;html=1;startArrow=open;startFill=0;endArrow=open;endFill=0;strokeWidth=2;strokeColor=#808080;" parent="1" source="UEzPUAAOIrF-is8g5C7q-115" target="UEzPUAAOIrF-is8g5C7q-123" edge="1">
          <mxGeometry relative="1" as="geometry">
            <Array as="points">
              <mxPoint x="760" y="412" />
              <mxPoint x="760" y="749" />
            </Array>
          </mxGeometry>
        </mxCell>
        <mxCell id="UEzPUAAOIrF-is8g5C7q-137" value="" style="edgeStyle=orthogonalEdgeStyle;rounded=0;orthogonalLoop=1;jettySize=auto;html=1;startArrow=none;startFill=0;endArrow=open;endFill=0;strokeWidth=2;strokeColor=#808080;" parent="1" source="UEzPUAAOIrF-is8g5C7q-117" target="UEzPUAAOIrF-is8g5C7q-118" edge="1">
          <mxGeometry relative="1" as="geometry" />
        </mxCell>
        <mxCell id="UEzPUAAOIrF-is8g5C7q-139" style="edgeStyle=orthogonalEdgeStyle;rounded=0;orthogonalLoop=1;jettySize=auto;html=1;startArrow=open;startFill=0;endArrow=open;endFill=0;strokeWidth=2;strokeColor=#808080;" parent="1" source="UEzPUAAOIrF-is8g5C7q-110" target="UEzPUAAOIrF-is8g5C7q-111" edge="1">
          <mxGeometry relative="1" as="geometry">
            <mxPoint x="270.2846463484759" y="261.67647058823536" as="sourcePoint" />
            <mxPoint x="422.5" y="124.02941176470586" as="targetPoint" />
            <Array as="points">
              <mxPoint x="240" y="261" />
              <mxPoint x="240" y="121" />
            </Array>
          </mxGeometry>
        </mxCell>
        <mxCell id="UEzPUAAOIrF-is8g5C7q-141" style="edgeStyle=orthogonalEdgeStyle;rounded=0;orthogonalLoop=1;jettySize=auto;html=1;startArrow=open;startFill=0;endArrow=open;endFill=0;strokeWidth=2;strokeColor=#808080;" parent="1" source="UEzPUAAOIrF-is8g5C7q-113" target="UEzPUAAOIrF-is8g5C7q-114" edge="1">
          <mxGeometry relative="1" as="geometry">
            <mxPoint x="500.5" y="260.22413793103453" as="sourcePoint" />
            <mxPoint x="418.4655172413793" y="347.5" as="targetPoint" />
            <Array as="points">
              <mxPoint x="529.5" y="351.5" />
            </Array>
          </mxGeometry>
        </mxCell>
        <mxCell id="UEzPUAAOIrF-is8g5C7q-142" style="edgeStyle=orthogonalEdgeStyle;rounded=0;orthogonalLoop=1;jettySize=auto;html=1;startArrow=open;startFill=0;endArrow=open;endFill=0;strokeWidth=2;strokeColor=#808080;" parent="1" source="UEzPUAAOIrF-is8g5C7q-114" target="UEzPUAAOIrF-is8g5C7q-115" edge="1">
          <mxGeometry relative="1" as="geometry">
            <mxPoint x="457.5" y="386.5" as="sourcePoint" />
            <mxPoint x="590.5" y="386.5" as="targetPoint" />
            <Array as="points">
              <mxPoint x="510.5" y="371.5" />
              <mxPoint x="510.5" y="371.5" />
            </Array>
          </mxGeometry>
        </mxCell>
        <mxCell id="UEzPUAAOIrF-is8g5C7q-109" value="data lake CLI" style="outlineConnect=0;gradientColor=none;fontColor=#545B64;strokeColor=none;fillColor=#879196;dashed=0;verticalLabelPosition=bottom;verticalAlign=top;align=center;html=1;fontSize=12;fontStyle=0;aspect=fixed;shape=mxgraph.aws4.illustration_desktop;pointerEvents=1;labelBackgroundColor=#ffffff;" parent="1" vertex="1">
          <mxGeometry x="60.5" y="430" width="100" height="91" as="geometry" />
        </mxCell>
        <mxCell id="UEzPUAAOIrF-is8g5C7q-110" value="data lake console" style="outlineConnect=0;gradientColor=none;fontColor=#545B64;strokeColor=none;fillColor=#879196;dashed=0;verticalLabelPosition=bottom;verticalAlign=top;align=center;html=1;fontSize=12;fontStyle=0;aspect=fixed;shape=mxgraph.aws4.illustration_notification;pointerEvents=1;labelBackgroundColor=#ffffff;" parent="1" vertex="1">
          <mxGeometry x="50" y="220" width="100" height="81" as="geometry" />
        </mxCell>
        <mxCell id="UEzPUAAOIrF-is8g5C7q-111" value="Amazon &lt;br&gt;Cognito" style="outlineConnect=0;fontColor=#232F3E;gradientColor=#F54749;gradientDirection=north;fillColor=#C7131F;strokeColor=#ffffff;dashed=0;verticalLabelPosition=bottom;verticalAlign=top;align=center;html=1;fontSize=12;fontStyle=0;aspect=fixed;shape=mxgraph.aws4.resourceIcon;resIcon=mxgraph.aws4.cognito;labelBackgroundColor=#ffffff;" parent="1" vertex="1">
          <mxGeometry x="262" y="65.25" width="78" height="78" as="geometry" />
        </mxCell>
        <mxCell id="4dynubgF51ZRnNJFd6d_-306" value="" style="edgeStyle=orthogonalEdgeStyle;rounded=0;orthogonalLoop=1;jettySize=auto;html=1;fillColor=#f5f5f5;strokeColor=#666666;" parent="1" source="UEzPUAAOIrF-is8g5C7q-112" target="UEzPUAAOIrF-is8g5C7q-113" edge="1">
          <mxGeometry relative="1" as="geometry" />
        </mxCell>
        <mxCell id="UEzPUAAOIrF-is8g5C7q-112" value="Active&lt;br&gt;Directory" style="outlineConnect=0;fontColor=#232F3E;gradientColor=#F54749;gradientDirection=north;fillColor=#C7131F;strokeColor=#ffffff;dashed=0;verticalLabelPosition=bottom;verticalAlign=top;align=center;html=1;fontSize=12;fontStyle=0;aspect=fixed;shape=mxgraph.aws4.resourceIcon;resIcon=mxgraph.aws4.cloud_directory;labelBackgroundColor=#ffffff;" parent="1" vertex="1">
          <mxGeometry x="390" y="65.25" width="68" height="68" as="geometry" />
        </mxCell>
        <mxCell id="UEzPUAAOIrF-is8g5C7q-113" value="Lambda" style="outlineConnect=0;fontColor=#232F3E;gradientColor=#F78E04;gradientDirection=north;fillColor=#D05C17;strokeColor=#ffffff;dashed=0;verticalLabelPosition=bottom;verticalAlign=top;align=center;html=1;fontSize=12;fontStyle=0;aspect=fixed;shape=mxgraph.aws4.resourceIcon;resIcon=mxgraph.aws4.lambda;labelBackgroundColor=#ffffff;spacingTop=3;" parent="1" vertex="1">
          <mxGeometry x="400" y="190" width="78" height="78" as="geometry" />
        </mxCell>
        <mxCell id="UEzPUAAOIrF-is8g5C7q-114" value="&lt;font&gt;Gateway de API&lt;br&gt;da Amazon&lt;/font&gt;" style="outlineConnect=0;fontColor=#232F3E;gradientColor=#945DF2;gradientDirection=north;fillColor=#5A30B5;strokeColor=#ffffff;dashed=0;verticalLabelPosition=bottom;verticalAlign=top;align=center;html=1;fontSize=12;fontStyle=0;aspect=fixed;shape=mxgraph.aws4.resourceIcon;resIcon=mxgraph.aws4.api_gateway;labelBackgroundColor=#ffffff;" parent="1" vertex="1">
          <mxGeometry x="340" y="320.5" width="78" height="78" as="geometry" />
        </mxCell>
        <mxCell id="UEzPUAAOIrF-is8g5C7q-115" value="Lambda&lt;br&gt;function" style="outlineConnect=0;fontColor=#232F3E;gradientColor=none;fillColor=#D05C17;strokeColor=none;dashed=0;verticalLabelPosition=bottom;verticalAlign=top;align=center;html=1;fontSize=12;fontStyle=0;aspect=fixed;pointerEvents=1;shape=mxgraph.aws4.lambda_function;labelBackgroundColor=#ffffff;" parent="1" vertex="1">
          <mxGeometry x="546" y="336" width="78" height="78" as="geometry" />
        </mxCell>
        <mxCell id="UEzPUAAOIrF-is8g5C7q-116" value="Amazon S3" style="outlineConnect=0;fontColor=#232F3E;gradientColor=#60A337;gradientDirection=north;fillColor=#277116;strokeColor=#ffffff;dashed=0;verticalLabelPosition=bottom;verticalAlign=top;align=center;html=1;fontSize=12;fontStyle=0;aspect=fixed;shape=mxgraph.aws4.resourceIcon;resIcon=mxgraph.aws4.s3;labelBackgroundColor=#ffffff;" parent="1" vertex="1">
          <mxGeometry x="890.0000000000002" y="10" width="78" height="78" as="geometry" />
        </mxCell>
        <mxCell id="UEzPUAAOIrF-is8g5C7q-117" value="AWS Glue" style="outlineConnect=0;fontColor=#232F3E;gradientColor=#945DF2;gradientDirection=north;fillColor=#5A30B5;strokeColor=#ffffff;dashed=0;verticalLabelPosition=bottom;verticalAlign=top;align=center;html=1;fontSize=12;fontStyle=0;aspect=fixed;shape=mxgraph.aws4.resourceIcon;resIcon=mxgraph.aws4.glue;labelBackgroundColor=#ffffff;" parent="1" vertex="1">
          <mxGeometry x="890.0000000000002" y="116" width="78" height="78" as="geometry" />
        </mxCell>
        <mxCell id="UEzPUAAOIrF-is8g5C7q-118" value="Amazon Athena" style="outlineConnect=0;fontColor=#232F3E;gradientColor=#945DF2;gradientDirection=north;fillColor=#5A30B5;strokeColor=#ffffff;dashed=0;verticalLabelPosition=bottom;verticalAlign=top;align=center;html=1;fontSize=12;fontStyle=0;aspect=fixed;shape=mxgraph.aws4.resourceIcon;resIcon=mxgraph.aws4.athena;labelBackgroundColor=#ffffff;" parent="1" vertex="1">
          <mxGeometry x="1060" y="116" width="78" height="78" as="geometry" />
        </mxCell>
        <mxCell id="UEzPUAAOIrF-is8g5C7q-119" value="Amazon&lt;br&gt;DynamoDB&lt;br&gt;" style="outlineConnect=0;fontColor=#232F3E;gradientColor=#4D72F3;gradientDirection=north;fillColor=#3334B9;strokeColor=#ffffff;dashed=0;verticalLabelPosition=bottom;verticalAlign=top;align=center;html=1;fontSize=12;fontStyle=0;aspect=fixed;shape=mxgraph.aws4.resourceIcon;resIcon=mxgraph.aws4.dynamodb;labelBackgroundColor=#ffffff;spacingTop=5;" parent="1" vertex="1">
          <mxGeometry x="890.0000000000002" y="223" width="78" height="78" as="geometry" />
        </mxCell>
        <mxCell id="UEzPUAAOIrF-is8g5C7q-120" value="Amazon&lt;br&gt;ElasticSearch&lt;br&gt;Service&lt;br&gt;" style="outlineConnect=0;fontColor=#232F3E;gradientColor=#945DF2;gradientDirection=north;fillColor=#5A30B5;strokeColor=#ffffff;dashed=0;verticalLabelPosition=bottom;verticalAlign=top;align=center;html=1;fontSize=12;fontStyle=0;aspect=fixed;shape=mxgraph.aws4.resourceIcon;resIcon=mxgraph.aws4.elasticsearch_service;labelBackgroundColor=#ffffff;" parent="1" vertex="1">
          <mxGeometry x="890.0000000000002" y="374.5" width="78" height="78" as="geometry" />
        </mxCell>
        <mxCell id="UEzPUAAOIrF-is8g5C7q-121" value="Amazon&lt;br&gt;CloudWatch&lt;br&gt;" style="outlineConnect=0;fontColor=#232F3E;gradientColor=#F34482;gradientDirection=north;fillColor=#BC1356;strokeColor=#ffffff;dashed=0;verticalLabelPosition=bottom;verticalAlign=top;align=center;html=1;fontSize=12;fontStyle=0;aspect=fixed;shape=mxgraph.aws4.resourceIcon;resIcon=mxgraph.aws4.cloudwatch;labelBackgroundColor=#ffffff;" parent="1" vertex="1">
          <mxGeometry x="890.0000000000002" y="510" width="78" height="78" as="geometry" />
        </mxCell>
        <mxCell id="UEzPUAAOIrF-is8g5C7q-122" value="IAM Roles" style="outlineConnect=0;fontColor=#232F3E;gradientColor=none;fillColor=#C7131F;strokeColor=none;dashed=0;verticalLabelPosition=bottom;verticalAlign=top;align=center;html=1;fontSize=12;fontStyle=0;aspect=fixed;pointerEvents=1;shape=mxgraph.aws4.role;labelBackgroundColor=#ffffff;" parent="1" vertex="1">
          <mxGeometry x="890.0000000000002" y="640" width="78" height="44" as="geometry" />
        </mxCell>
        <mxCell id="UEzPUAAOIrF-is8g5C7q-123" value="Amazon&lt;br&gt;CloudWatch Logs&lt;br&gt;" style="outlineConnect=0;fontColor=#232F3E;gradientColor=none;gradientDirection=north;fillColor=#F34482;strokeColor=none;dashed=0;verticalLabelPosition=bottom;verticalAlign=top;align=center;html=1;fontSize=12;fontStyle=0;aspect=fixed;shape=mxgraph.aws4.cloudwatch;labelBackgroundColor=#ffffff;" parent="1" vertex="1">
          <mxGeometry x="890.0000000000002" y="710" width="78" height="78" as="geometry" />
        </mxCell>
        <mxCell id="4dynubgF51ZRnNJFd6d_-327" value="" style="edgeStyle=orthogonalEdgeStyle;rounded=0;orthogonalLoop=1;jettySize=auto;html=1;fillColor=#f5f5f5;strokeColor=#666666;" parent="1" source="4dynubgF51ZRnNJFd6d_-301" target="UEzPUAAOIrF-is8g5C7q-112" edge="1">
          <mxGeometry relative="1" as="geometry" />
        </mxCell>
        <mxCell id="4dynubgF51ZRnNJFd6d_-301" value="&lt;blockquote&gt;&lt;br&gt;&lt;/blockquote&gt;" style="sketch=0;outlineConnect=0;fontColor=#232F3E;gradientColor=none;fillColor=#ED7100;strokeColor=none;dashed=0;verticalLabelPosition=bottom;verticalAlign=top;align=center;html=1;fontSize=12;fontStyle=0;aspect=fixed;pointerEvents=1;shape=mxgraph.aws4.container_1;" parent="1" vertex="1">
          <mxGeometry x="500" y="67.75" width="101.4" height="65.5" as="geometry" />
        </mxCell>
        <mxCell id="4dynubgF51ZRnNJFd6d_-312" value="&lt;span data-buffer=&quot;&lt;!--(figma)ZmlnLWtpd2kwAAAA1UUAALW9e5xkSVXgH3FvZj26+jHvFzPDGxQR58XwEJF83KrK7nxN3szqmVEnyaq81ZV0VmaZN6umi3VdREREQEVERERkEXF0EREREXFERERERERERERkWZZlXZZ1WZZ1f98TEffmzeoe1n9+8/lMR8SJEydOnDhx4sSJyFsPerUojnvnovbhXqTUNacblXo3bBdabcV/9UY56JbWC/W1IKSoO2HQypQ9gx3Uy+T9sLJWL1TJ5cL2PdWATN5kumEgtBYMrqHcDc9Umt1WUG0UpOVivdGurN7TDdcbnWq522mutQplab/kst1yoy7l5aTcClZbQbgO6FhYCupBF3BzvXtXJ2jdA3AlC2wFzaoAj5crq6ukJ0rVSlBvd4stei8VQuHtZIa3041Oi3EEwtmpsN0KCjVbQ/kyV7YjvrxSbwetQqld2WCQ1QqMWdFQd0UrKDXq9aDEYDPMJBxeeenqhNerDD/00q3US62gBr+FKrWuDRhXFy4MYibgbvJKmujC1hYTCQgOy91G3RBSpnC2VWkLU7o+7kfNnV4cgQbdQtuMEqRaY8Nk9dnBqD8YnWvtDwWn3qjfG7QaVKhG2dQLBaspj6cyAKTKjVJHOCSrS4X6RiEk5621Gp0mGX+1VagJXq7YaFSDQr3baCK0dqVRB5jfYDiNFrkFkTHpYrViyC4F1WqlGUp2mYG3kavRqWOtYK1TLbS6zUb1njVDZIWu6uWgLAJK8Y63g7uFpRNMTEkAJ8N7asWG6OepSp3O6gbKjFZKZ0RUl4frhWbQPVtpr3dd2yucvA2DV5ZkLRSrjdIZSledrZTXjF5fDa2ajPSaWlCuFMhcu15ZW6/yv1RfF0LADvZ6l+0i7Fa1IJ3ecLYQrle6bXqm9LCNQqtSKBr+b2y7zE0m0y0hD0o3JyhuVT2c4Zm18ohCGFZCJrQL5UZH6h55sX4GVaNMVD4qJSTctKgE+Ohao9wxvT7G4q9RQemxttRqnKXwuHCntxedHUx32tGFqVWGm8O7OoVWQK2CTzdvGnHUGmapeG06k5lhdVP002K5cVZEk7vUFOabhVahWsVMsDpq3ZaT6MI8uBqsCnQxqK91ywWEVTCdL0mZ5daRwrIUViuG6jGTb1TLgczqSpuFF9zbMMM83mwF5WAVBSx3m61GKQhFlU8wQ0FV6k8mqt4NK47HUymo1qm2K00DvKxWqHdYsJV600zE5evB3QWrq1eU1oONlsle2aSZA1/VYNg2K/oknF3TrHak+2sLLeSeDPM6W0pkcX3YqdXgpXu6U2eeDYEbjLo+LGwGQWm9W+wUmWQANxptwLJhzRqtgrFSNxWH0ahfY00LO2hQt73OTKyJZcX2t2rGnutyoXUmENKeG6Sori8LlXVYxFxSzJUa1UZayhv1N20WQiyNyZmlTYtyg6VDeck2SYrLoogoL9ljYWO13TU0KK2sF1qotSsZOx60Art+TwR3l5CTHfnJdTPbp8JCu5OamMtML2Qur3YQVSOstKWLK5q9wchp71LYQL8BKjSqXGFa6E1YBaJTkKRGHtg2sgJCU8UWAfNTGEhO6XOVmhVzHvt6ukJmYYNlJOZ0sbLLlhtu9YaRlT57Zitol4zgVysyTo2+mt7aVm/9YHs72nIc5yoYphY7ZoEFRKUqtxrNWVGvNjCTzCQ7SLHaEQa9YqF0Zh7ky/otmd1goYFGVVAOwKrTxEKT6mrjrMnAQtvyEKIR1W6p0BTNzM1KLKhWyewgeSFajrbGk950MB7RJtkn6Jn5Ra7kNcOtnAlm2uZVo55sPO3JYJdS0gba3fXAzbyu7+9uRpPOaDCNodsqyFBVs3J3UA3JaLhmLxVMrzQexdPJbIYXmXngSurNkHStIFunBx9O7H5YYtcnk1uFYrlrW+RdwWAvhNPJ+HxUGA7OjWiQElNsKEwsGY3ldVnPIpd6e2hkMh6Ga1RDp/bSswta5CKD8G0xuKtTqbI9Y+gA5pxOiQmzjkke8aF8GNAUtJDddRZn+0r3VspLmfJtlJcz5dspH8uU76C8kik/mfLxTPlOyidKlVYp2/tJO9rT44FIpoa/0QKqisFGICPQycC94ng8jHqjxl6UKEiuU7crFTHSTDZJ8jrsFLHNJu/dbRaw0Vcj/PXxZPDc8WjaG9LcWcbM3KLLRgre6Q7b+2rFcDhrvRFNpgOWnsAaTaoyTYuNdrtRI+fVxvtxVNqfxOMJ8mFbKGD7qFClViNkpVVa5HVwTyBLD9Wj5OH9ma6aBYaCLSyh4pRzWHqSPEmpUiW3UBOLKk0WmWJ8anJL6fyZ4vIGi308qQ0mE2EgXUVm1km1yWCBsIzsaG1RYa/ci3esPfFK7MKA1EzBtbE5dj3kmvU1QOp0M5BUhxuSeM2yeMh+cGFvPJkeXUM+3hAmnc3PLRSVAPCFTP86AaRL1qv2Dsf707XJoG+J5Oyyykh8xqBnV5k/a9PsTafRZEQVWJWmWSHYaGOrtZnP/em4FcWD50I6FZFhx0gm5UOnOU+atSf7oy2nfl65EoofJDQVLje7KRkdTg+HURi5sTN1rbDh7GObIwCJLqFdVlc4jeBq1EuysfjtoNZkgzV+fi4hgzCnUSrJi/YbsjrZLTAcva3zdhrTMa1joO9FuoYDzUaJ22ryFtvoNd1dJF0rUq+IkomJIe+bBqXxPgxNXLuFh2qH2N3k+IVOW3auXIZU3pA6vR9PB9uHFB+SSrNQwvfcCOyhxLflYtA+ax0DpASd0M6iMbgAOZWElXuDbruBlTECmgOgdExypdbEvackNeBYaTTH8UAml/0EkGNcFYqIvWMPQgbt7ERsM3sNB6RCE7Byqa3OishNH9gJtaNj0KCMWLJ0ayd5OZk6TIH1u+QwTVl3WmbiimzIpH6p2jAeaw6Pvpt45ZTznSb+bNA1x4puq1NvV8xBaoFVVq6Id2MUYDHbrIsDLzhLFfid9DLsXMa5A5tgulSFVVjqCj32K8q61uBkj79K3rN5W+HTal38MvI5W4GHIWh5WzLu/AJYuM7GW150w14q42OSLlN3JrgnaXaM4kbDnshWyNvBrZsJPp6WWYaUT9guEm06aYucITek9an2pDey82xHeAO7MGeHdpdtg/1YBASaYnkz76aJXiV4QOrZ48xqq5EeH/wMKNk+chmY3SjyGUi6Uyw0O+G6hTliizNIQmtpBrKklmeAlNIxOYZbmKO0MoMklI7PQJYSYkoAKaWTllEmEaSE2Kk5YELvsjmoJXn5HCyleoXpyUEd0SuzsITmVVmgJXl1FpRSvAabVymhtWZ+rsWhJAJTqGMKzTq9jrNDAxdzBrk+6MUsazvjJwmSlDrFSokKJaSTgq7Us0VP7JV102kh6y6tygneHCRv287BFqypT8uLYbNl94mlNdSTdZcClh1qCjhmc2aBsFLt6liZB7bPik05fgS4zrkJ8IlwazIeDsuDiTUvMO3W2DfYFZCwsdq2LbZpKtYg6mPZphH1wd1NNkhraEtQEE/LlPRah61JezHBJDojv6j0cIy7ZLJeaTzEH9G5iVpW+hz/eJv84/f4J2ddFhpfoKQP+cdrAQJ7Briff/wd/skZSuF0vEeDLcmrZyu950w3CF6tN50MLii9sHvLLZT17i23kni7t9xG4u/eKsDc7q0CzO/eKsCFZm+Cma6M+hHtvHP7g766L0N0RXn2DEHlQW+4H9FG75vzxI3KW0VK9d5upLS/3dsdDA/B17Fs4GQ8iEzjrclgb0rJF9yN3mTQo8n+bjQZbK0Ozu1PEC1btjs3K9SO+SSjCTeYWCh5081803Cvt4VSz7Ul/oAXIUbMlDWBDXfUvASBVZlcGWCWAoaUiILJ42ShzmZ+s61Lvb0YZZ41Yf2ZM6cm6SYFrxlw/hPWfQDdtCR+O/FTyeYBMdg1sgsZ+s1E7lm28Ov5F/cel4qM4Sc0QmZyUqwKOm2Wmg6jXUgNts5Gg3M70zkkwnkypBSlwoFgsDWHMqPDicNsFKtRb2om6h91k+MlVap0W9OguNF4pWYocF9GRWoGSpp3sdAFoj/iJy82WuU66VJhtSX1y+W6MWrH6p2aDG0Fb17igcfZd0U0J8o2PSluPukpTsOSXlYomJPF5SWbXsHRStIrQ1u+qrVhgipXywInvSY8a2Lf15bCs5JexyQL/PpSyQQibwity/awdQKCpDc65+imRqsu/N0sQiF9OPukyO8R5bY5QD9ytVqQcTyqttYSN+HRITpL+hiOKtL/Y1fxrEkft27Tx6/bfr+pbcvffJdNn9C06bfI8Yv0idXVopS/tdE06ZNabZN+W9O2v6V5pi5yurWKGSK9jVT4vL3Vrkr5DlIpP7lQbG2Q3lkobkj5KaTC91M3LJ2nbcAQ6dOL1bMyP99OKnjPIBW87yicWZdxPLN02hwrv7O0ahbUs0pNUy6UOi3BK+IySLmEkZS0vGrpB0QGhZ9V0ttI10hvJ12nW+mvQir0T6/b8dDbmvBTXW+cFr3BPTZ+Tr2CQ0LaON18ylNJm6ebTxU6d51uPu0W0tbp5i13kIbV0zVp1ybmLPgddkeZlw1xkkjPkgofd9fO1AR+T71q3Lt7650zbdLvYiMRvr6bNCT9ng0ETnpfM2wLvEsq8Ge3zrSk3Gs11yXdbHWKMu9bId41ab9t+YjadXPw2WaaZP7ObRBnI93ZsPWDDTvu52ycMfpyfqPVbpEOSW8j3Q1DLLhSI1Ipj0lvJ90jvYP0e0mfTDohvZM0Jn0K6ZRU5LRP+jTSgzDE9it1P6nQu0Aq9A5Jhd5zSYXevyEVet9HKvT+LanQ+35SoffvSIXe83QY3iYEf0CXNgyHz5eMkPxByQjNF0hGiP6QZITqCyUjZH9YMkL3RZIRwj8iGaH8YjKG1R+VjFB+iWSE8kslI5RfJhmh/GOSEco/Lhmh/BOSEcovl4xQ/knJCOVXkDE8/5RkhPIrJSOUf1oyQvlVkhHKPyMZofxqyQjln5WMUH6NZITyz0lGKL+WzO1C+eclI5RfJxmh/AuSEcqvl4xQ/veSEcpvkIxQ/kXJCOU3SkYo/5JkhPKbyNwhlH9ZMkL5AckI5V+RjFD+VckI5f8gGaH8ZskI5V+TjFB+i2SE8q9LRii/lcyThfJvSEYov00yQvk3JSOU3y4ZofxbkhHK75CMUP5tyQjld0pGKP+OZITyu8jcKZR/VzJC+d2SEcq/Jxmh/KBkhPLvS0Yov0cyQvkPJCOU3ysZofyHkhHK7yPzFKH8R5IRyu+XjFD+Y8kI5Q9IRij/iWSE8gclI5T/VDJC+UOSEcp/Jhmh/GEyTxXKfy4ZofwRyQjlv5CMUP6oZITyX0pGKH9MMkL5ryQjlD8uGaH815IRyp8gY0zU30hGKH9SMkL5byUjlD8lGaH8d5IRyp+WjFD+e8kI5c9IRij/g2SE8mf10aATLtqU7VrdoXTiqnnim9Z6e3viLGlvezLeFfduOuZfrzgcbyqtNw+nUax8baNdyvO57tyR8kg8O/y4fm/aM7iLyt8Y9KOx8rwEJ769MxkKUrMXT6NwvD/ZgoQXT/DucFDEHZxs1SUyQ4eAOGOXxHMt9J9DEETppakwjk8Z7/T64/tjst4ObgshhB18TLzWfjTtDYbkchHjjcURwXs9IMQQEeoivzCNdk1s1FYtHgw2OefCxjJnSJGL7dZd2ivv2P+/XW7hnU0QBvnlzYnQHNEzpWOGGeVdYybpMqW3RBDq2cobizc7FWffPxjEg00Ep1WOxN00nVT5GK8/Vtt6AdqjeHs82VU7anFgZuxFWi2ZXHsHV30krANa7o0AcoCpSJVALrMQ3Eu8X6Z2UV1OOXupcoU6ZiE74/1hvyT81XojAPBzzWTMSYjGsLkSSxMyx7eNbA2mm9KXaXViT0a6aqqwzepktDt+zqBED02i3ch4UZ86MIr0Yq2uIDJ9bjDitCQ9nx30pwxMXTkHXbee7KK6akt6wllWD+TU1eII15irMgqqvPz56FCNlN4GWh2MkkbMrkDKg3MR3PmcVChZ9/m5KicF5yfnubqgBPGBHafn9y4M4nbvHB1rydZFauh6srpMgNx2fuXWTk+OFNEkBkOnJdNRpSxD9mLJNw6iCXHaqN1jftU7Pe0PTfDWxPI2mXVul4ZwH7OJ6Py54eHeTszuoRf66Q1RzN6hFzc5Yp7/3v2xLN43an2ZJbMBA6DA8dI2g0ml8wqtl7d7w+EmYbpVKmI10sd2UMQJnZ0vji9A5TVar1Ai9zpfH5+mEV9OwBN3QsyrEw4e9VP5nhyOz8ntgEFpj0vJ2Bvb23E0xfqoZX1qd5CEBNN2l+9Sgr7t/bVaX9HnaHYQ9auGidf7+sqyBczkfNwO00lLz0nLm0mLJTwnLRbTnLTy2/CSFc7CxbJYdCOFxpwElhw8I4Hlf4UEjh0d7UrfDq5q+Ge0x9czPCgvt0k4tR+rPgdua2Pd6dzfSfA4NOSJMqaEWQSzRvGMaaIQ2JIk7w/iDY59oBAMsG3PsHQWVb7oxKm8JeyePYki5fvNomQhSd09ZHzJpKPPSakQb0GK0iJmcjyJqpnbSazi9mAST1O5SF8wlC0vrMnk0fHWeHe3xxCKdseZhSI2lV1BDJoxyAQaLaD/i4n3+gfOHi9cbHsWDcgYljCaqs/kCL2m6sLmNSECgwQ1Eky6k73S6Q9m4cBdhxWxQ0jRgGu9CdPmZJ9l1IZ4jJ5JSynUo+n9Y9DdCBHXLvPxXGJN/JOO82JLIZs5FzxISYsqxOo+rcPD3c3x0JGPTYF+2eNtPiESCwGPwI1sHSG8R6sIi+2HyUzIoqfGT/A8dAMKe8BwOAkOIL21aCQbHhJyfY2zlPV+HK2iBWviiDCOw5EJz2ich8H2dmM0PGwh9IPe0GD7Zav5ld3d/amMzuxHlq43T5eCs2deIY6jaaUPl4wfXZsMwHm71tpVBIAOIdCToig0dtjkK33cVNe+FW2Dct7WJsRZWqYSRG9RJCuj7wlE0N9BW9bSlMGN9/cqfTxc5ZsZIv9u1pCVNIUHNV6CbB8MieJ7tFpIiqGh/j5NIDRLykvW9Hx3oaP+UNVJhw9Rv+E6RRH+HxgNRCDCrvT/X5ghAyg/FBLOwz7d9R+qvr0T7X4DbkKMEc4LOE4HppIH/wN6bpJmeM2JuEPewlQKGykGfu+MWyNub8rW4cQZM1sa49cGVBI/otYb7bMnHobRkHUZsZRVbhAXx5O+c2kugZCP9zclqLnJriSduzEszHibV9CPoKBzdQEVoqZTKcOkjNHk7Zg+BM8hpkwWkcwy9CMitNgyb3kbl/qMVd3YVCIi3OoDO/71Hi45gVYRcbOXLueY8yD7n3Py88MBrurkUNZ8exy6sYAmAM7segH7uzceRSO3hBb3R9tDuVSWu8EsyaVB3EmqjGSWLdulpH2tx4kgMXxbCdRS1Xv7m8NBvAMx6VjYbY/bUW+3OmNPOvGOduJXOO2IaU80N5zKsGfmSEg1tsP74RQD45DFiuFuz7Ewb2guTXfjtn8VZfaG3jDMzEjSxJK2z5CUd8I4/lcJJ+iWcfyNf4DF9yfslvtySsjNTgB5kvQEsBDvTaJeH4zFeGd8P7Lm7FKMkGBfzDPoS5bGBpvSAzm1bDpxhWO2sSutXHCZ44cuc6ItpwqzzVZG23K+M6xuKN3ft0affj0UdDqWinJ0MNhK3kUkNysSMjNvN3SJIKYJ63oGxmWLBOUpY/elYSs5SLCzuMal0tmuOSbrI53gBklBfRoxx253ZCxIrdJnKgfbAzZ8lJ5WluZnWMMNxI+f2HSeQ1sIqKX0kl1xv5ZcxmnJpzWelJIrOZ8bIcaRYOZcMUXOO0CCv2DfMJJbdAwUcbbPYenF9WIpsOHCDb2ko5Z7bO637DWzXPW5l1D6IgJ2DGlLwqGVcjd5p3cxegEdxR0SBfW8zRRsqHwBUc5AJVET0cV6jwOukaHBUvl6YYNovLm4UNw2tuxDQx2eNVcAnqRdbkkMgu+uHc1Nfy7g1CyBCSgznWK1wEiefYKgwtaaudIgbNyEbLd5e3fjDgCebRlyzMYyYOCPxfvb29xoYTEG4q8Z1liUW/j1U/E1pkQelR8fnBM7Y85nzD/FStmsm6+wiig19qfio4rhpx4Tx3TgC4pfQnkRjNUxgYvQvMjCbp2PAS/h0xQ24/Fwfxo5zw4jt5Ud1T9pdcyxvLHmulReZbVbDwJ3VVioni3cE5LRVXNykUc6iSm4k32QY6XysOHpqvdH+7sh9oKJiBXevbMRBCBiCw1lGeDYntvHKk5cadHwxTwu7YmxnIzUU9VyhpJb6McsNVdaiW2t0HCg4zOqDnJijf0ENTKHYVjVlgR9Jpu538QygnA/tohpMy/hlxRWbs6Rx4eSXdj4xKFk2yICuUuzKi0P40i4eGs1zgjEc2/K/WB11b5wy3G90GhJLu+eNC1gB9lzDL3MTmn7snY+cSDc9phsroLATDNW0Ry4jwXimsTMaGI9KHsy2bbKXQ9jeFkuCByA0XyZYYZwd1Dunl0PWNHrlWq521jt2mpu+rrJs35GyGq/x9VIQ68w2Uq54NCGEAujc0iRIBU7QKboDUa44S1j6Cn6dtOpchSk7f5kAIe6P4j3hr1DsxhWxAE3RaP78N8c7hNXcb3tmQKSpBnOOUENGpy3A22aulY07HHa3bENcnsGaBvsRjagRhM31WRxr8o4S9ZXytX2h9OB9B5NVgfRsL9hp4IJ2mJBIXuUQWfvzbksZ4ByMKn1JNqm1FKiH+4ZkRhsEs9ZZd8aYXK5xA7nUwu9IG26c1f+i2kHwai/JydCxBC5rGyksIF7updM/ia355aTl3nKTxuTwVYMm9KK0WTQ7YqmGSgWVyQfkpN6XOVKuVw1T7KwnUaXueVKQPYVT/IwyjatDSxzdBMDFCqv8LKrMMVGDTBhaDFiCarFxllrgVhQBScatuaW/dnKrJVdhl66eZlbcFSVnC6MRm5fxeIRc5geWuzr3GIV2naxai4wzfsJL3036HN7103AOSmkVfla4e60in3z7lnVoiWZ1i6VuIMNWl0u0CodWSzLqTk4JgYCMdpXAiumxN31Gh1lp/z4KrnuaqFWMW/pTpiiu+A9aQpnk85PsVCDGS+XVYM2mtSVl2usYCCXM2ns1DPAFRbQLJTdM8grLcC9KrvKlgxXbvO7uiGNzTXxNaVGrYl6G/i1FwtbeXoq8n4N8z2rRRGGvc1IIkJ6z2LKQeO1nO9nSLWoJ3FrCe+IVodiwlXOrh2VrhntVpGXrB3/khSIyhhDr+X+QMiR96Zjl/MTqOnk9Z7KTcdhb9cW2X+NyWoYdRVrMuXkj9ousBcm4NXBBewFm5ilGZqYgNlUHmAbdkeC2vggcs7peNg/Y4wUIQos+Gpqnb0M7vqAmPnksEKoniaxuZkQ6hUzElsuHTkS4HNGQ5GoYdSE5s5j9Ua2Gf1tz7oaUudsrITDzndMjC53dtA/F7F5sGIxbx7BHdOWLoP+gHCcDCA3HWA8p73dvUo8fuqdXKBCGm9jAqJQZlCCHPULEvP2t/Ddk0JOKpJF65cD+Qkh86bOrlfaQbFRaMni1uYxmiwWjy3uvEMuVJvrctks775Ez8lp8wMP98Mud4p32HX0EqAKUWuMU/IS0/ycJSl5IRYEVQnRGPYjfEjXqNhh9yPVcwh28Do2BfV2lLqOcIjbjdhFvJeag6sISlIbdX/y3k4vjtSC8kzGAu/cYwNPniw9R/mZokV4ylSGcAw9JLWgp47sTOUltaCnDeKmPYSKtqGob9Yc2DgN7wnH4L7bG860yfD+Rk89Lwt0Kqbe5Omfcdvm7xlfoSDRDQk4vE2r/2udEfaVRXWry1oOokEcjrenbr8MpQo23qK5aBiPOnt9Jt2x9uvAVgfDYYLzc5Sts5pAfgFI48CeOiWVnSOp+6rloI001Nc1N9CmWJ4b7O8lbhL5X9HI5BI+0vM8LpszVTOH6180t89HnKYHvfFzOFSG+ywn1GASGUNk3ACh9NfsZge18Xg0HHBbMzxMevgkLs4O4UGMghsvkruPeLkDZ4ZtKl6fVKQjNuBfSsDOPU8r3pRWmFP5rOKXkwrx0GfgBxJwhh8OC5YN6n9bxwbYBygoxJjUB63ADcwiJjV/mqkRhgX2oQzMMiXQP8tAhSOBfThzlGv2sDCxernWv68vyWExRYXL96AeIevOBh7Rib+H7aTYtJsIwQA8wIYEv2L1al9/KZlr42POJvujWj0XagY6v4L+Dbm0QTZW9H3Zig3oWxX5fgtOrXBG1z6m1atckGteUX9c7ycBIahnO3kDN3/Y9M5DVH82iTkhJjEFH0NhZQ+o2vV8xizfH/Udkpn7v5IzjGXNVn8cMZZuY6R/nRCLUp92hbt+e2lZmm/09RkVkXQ52o7V1z39YnzgDBj5xuqfPf2jnhu1SOFXtfreWdFaDZkftlAnTIFLkOnfcoeEEUnCUq0o5gQXjGRixBN/cRLFImhiG5oB/tg8a5gtLm9kx4/V1zz9EiIthCQLk6i4v+kI/Xoa2wolQIZE9Ff1HIiY2Se0/pqx4skePk4Kdgh7SYOq7Lcqr37f253tPW/z1L+YK9uQIeAVXJ3kbeMK9r53btLb2xGTj3OyrK45ArKIp1No8lp0WV17FGZRz0xZi4Uhg8/8Tuqb1CMuAbYN2mnNBitH7oLUE9QjLwJa5I7AS+xf6hr1qCRvqzakmLl8uk49eh5i0c7iYCT3bTA2K9nq7xYJ1dnZuP7+5iRvq77HkBMleZVWT0gKtu4+p0ltB1Wv1uo/Gslz9B/0RkRwdnfHo6qEhfAEJfzx7+ZqcXEuTPd7nD9nGM9jFaYo5QFLN5JxsMKyWD+QxbLbqMgri/L8LApWSR4DAP7BLDjEVWIJ3htNxlS9IFtV37fvfO0b4z31Q5eodDqgJuqFl6jlUso4L2qqfjhbXZI3wAfqRVlYuu9dUD+i2c4xYwnxofpFi5naiQ+A0WM89nL0BvUeT1wgyk1O2sjTENLqzxNwFflQ/gtOoheqTL2Ehf6O7dNwx5pz3tSn50HGY3mHp/7Bk1nq4F1WTQAq4WNR/YmWGjbI4WCLTfhI7Uv86fgcUYd+Y9Ror+KBIseY6dV/qpMKbvbmaj6k05tp9S5f/Z0WUyLUHvTVR2eKJaBYvVLrFxjWioP+YNbtTxtY216xC+gZ6lUIIl7v9Vvtaps6RPEGLzp6hfvDfmxvWdwTmHU0A1m/KPOiZsFlrfY/naj9eWPTFm3Ogr999hhnyWVtxTNomUbjl9OCrfyOGPvEqX9FUgv6TuKT6Uud42nBVj6rD3sYRPRkpJb1iUzRIhR2cdzh7TJJLags2UrcsLFM6q6YA1ikVYEZM/pWT/1uxl9o2LEwrCsvAtqma9gcTmppcOmqbNmirMfGm3EPZpbVDdmyRalbkDGD6hHqpkzRItxlIawi9Sh1c1qwlS1bNj+KfYx6+Kxkq8NtXJyZ5/O4WdHW32sbWJBgPD4LsDjfFRkfK1af1PpbXN7WdGeCKblo6m1HQBZxW/pdi8a7kVzlfU3r27MAi3PO9pwABeuOeZDF25HXBqxz1HK8V422MaszqSPin9BZhJYI+gjGy2cYxfF0Ot69BJWfPIpzKUKvmCHNagaype6h7CxldO6njuK0x/gS1M5QXmmiEjjdrN6YTYJRI36z0n5aTrmFzSMx9ed7m2PxahjfuvFQgP28g1luU/DrHFiGmAJ/wQHNmFLo6x2UyeW8gKLLknmjA9KVVVqG/UsOZrtKwW9yYOkqBf6yA5quUugDDhqa+bVg7G9WKL/i7bDFWRcilclU3axuvBTcqkYzlh9VipFRRcUe4Aq28jmmLONih4CH89myRRkaULPXl70GlN1s2aLQIaASM4HpMYtUraoLBnh63/5IdV0dmrKtLasPa1NcT9l2BOngz20Vxtx4P7OKj9gKYiP4g6fVX9iidWEof9SWm2yH+Anh4LnS6rT6xzmw6b9CNCeGpc/Zqizjtqqs/qOr2hkM+67p2mQsP6L6vK1xbJkpBPqf5qBWCQB/wYINGUM/jIbbCOeLFp5s+DRRVfVSDmsAW7izkzi6V6b+ApP+YxZsfjVbV39gS45nN1P09F5vdzBi0JF6e079oWzySeF9cy0MF+gIR5upaqq/4m48HKHba71d1lJvIgvs4x4K5G5y5bhtvPwflQVpL1VDuV5IK14yqyjSz7mZncP0vVTPSBlf4lNa/UwG1qYVN8SvzoDKs8vin9WEDxmfwbpbvSaD1cRbiCYHUWhuUmD6NzmFECM0vovBb6m3Z0Dy498V9VszXonSyc3wZ7V6h2axJBerbapUW/1Opqs2cbbxvszyu7KYtR4F/jc26Xc1haQmM4J3SziIqxhTZpdlaoc9uS58MNNBaB7KhijZtGAe14qR+bMZq5UZ6Vj9qq8/M6syU4GETKhQvd1X/0vb2xXjir/I0x90ZYlF4g3ZK5gXe/pvEtlIcAEa6sc99eUZLODAD+S/zyBVRmriAnhS3IimcNOarZd9+H/MoLS3sH+ewUpoHZNlWGVf9fT/mdWJS5beUbzSU/83U8Uw1as99T+8XhpWjrHh+r95u6gHbqM4iDHunH6eTyzgyDeSjqv/pg20g744Y7Gs/ifzYo4tl3g99lZNKOohqzdYnHCgXuKpj3gjFsGRN21v0VzobgHnxnLrfJVNbh//Ur3CVz/oDfFpUdyDQXS/wX2fz1gNc85VxQPWjNW54CUEJkNLd6Of5Ya3H42bqNAmS029i1iarO7dPUPuvb76D0lbuomJHsqS+2xOfdm730SU5Ukdh36EGGEx1E9kwCX7yY1FJsYCy1YC4f7mdBIlX+R4j6d+0tWXelucmgoQjJklGOFGydZURnv70/Ry88W++jlXIds8V3ksxNc6yPr4ACtm1OpBT/17rNFZAw+x/edF7oz6FxGRLBDE4Njgzt2imeagfN6Rq0XTXl9E8RJfvdDBggORIT68/mEHaeJZsLsc1qLRvjX4L/f1j3hmnlvj+xOrHKuPecQRDBh7tr87mqv5TVtDA6tVsfqExwnKAC36WdmpDPi3iEe6NYzJkiMGc7s9MO8NZCL++0X1TVYVB6o9joUJ0le8WGrCvQh7PamPRVtW1A/55t0XpvgDWv1vi9IWiGn2Qa3+TwZGKIutV73QHXOi3T2iXBJXdPcRP+L3BxLZ2KV7pFbpY9//M1cJcqhrjcdTil9wxUQWtPoi18OmVdXUyNW9WXr/5KkvJVWOoNnTvuyp/5rAbZNmbz/Gjn7Fow0RdRZMeSCqLnP7dSsbDu7BaH93FYOAwqlX+up/W5tLhQw1qXiVr36AoBibHbp8zGSsl/LMnvloyYh1DNWTs5KtLsqKsptXkEa8Tl0EtMilyASEmUSzQBv2CcjlF0MtehBjJCvYs4l5NIv9uW4eYtGquwPGUx2QgHI9iSvZ6tpUbBpKch6DD8LDsmWL0thkhc195udx6jFHYRb1blYOGpZ1GHEkH3sx1KLfQxihTyDffBeH/tST1BOPgCzis60QQsIXwGI2Ff2t8yCLh94R5zKTEIun8nT1pHmIRdscGgWR4DWRTa2/LVO2GFv2ObToAHF5dcusaOv726gZmh+fJ5Bk5pCpii8CWmRMnel7vMocaMXmkhYtwoEdSxGpW71I2oN9vwQoWZRf1frFGskZ3RQtoO5lOjaeyuxzAveqn2efkNNPuMvS2kE0TOrrHB5hkZiYxKZ6o7Y9tkU4cbixJhkI/ppDZKKYpy3CtqEx69/N/rU1g8E9RH6DO0duR40fOolGyeJa4WrJUkmt9fM99U7dcy9JXuCpP0h2QhvwFXDVzMCG2wfz6r16RFtibhTNuv+SVn9owrnDI8/nPqfV+5IKcUjE2iUIcPlHSd1MuhWRIiMRhM9r9f6LMQqzR2pf1OqPDQLKYQzafeovjSx6+C4T7pBEju4KTM5YhRF+qkyA7LqftC55CZp0idxkPk6rv50RkFsoofAQBD6lz0eHBOPOnUOy7/TVp/XBGA8zkO2nuTMhWou8/0ELp7JhEqjZKUbb4wmeKLE+GeB9+j+724oqjkLMDqb/i54y3RK7E8mr1/jqvzIhMLrT4C6DdQqj+CZj7CKBTPIw8kP4GfF0djR4EXGuzahvCLzHVy/zCEvu1CIMsAG9Koenh1IwzzLLsOc06b2e+ikvHrBHcIJL7gSavVE0lOG+xuttMRITC1tv16qyPN6RU2/2JDjXwuKod+bUr2WQqu65wVu8A0EBYrp/IEeQKYGUsDr7u4xM3Os99X5P/UZaJ6fW4mHIJk/Nhzycn6RGYFTiG+f0O7JQNsX3afXbKagVETRAl40yvibHlUdSI6yYmytueXLqd1J4m1ke1TEVMP6pFBpujffAfGtO/z1bDVvyISpyAX9Qfc4zjwlCcynE0Ui9wN9Eq5iIjaQtbPWFrf/lHakB/PkcVybcDrEirZUILrCV9KUWkf+AP8FQJOhnUPAV9XxfrPB4eztkzvZjkc1Hc+o/eWyhtEsWl4A/5ak/cuDETRLwZz3EvDtgLxZES0W9K6f+GD4yF8t0/wEPnWELx6V8s6f+hJFzxsOX2sZ9UO/Jqb/0rGaiP0aJGc+DGk9pS6xOywarZ+bvfTkco4mFWrdgRf2N1x9vETcnPJ6l/d6c+ltoc8uD2LOvKmKCJvoz1r8pQPbAejlcxlnhfNYoY2E6nQw2iRXF6kM59Y9mFGYGzVA+llP/Bad5F0cr/djF93GHloDcxy2+X/1PBIICcdEV0xHTqLhH8PeQqFGnt3jqpfaHrU3sk0yt8vweu9keRVD1Lv32qmP57oryOFUYmfo1gQrviEQtyztWxX/NQieUNxC63ViThxMC7yZAr2a/puV36i6Xc2hS7KbQvPnc82qjddY+6Fgw5WKhdMYBFg3APIhbwlfFMzb+tHXHvQVkT/RlgCdDdFDr2Ji8GSD7g1Ocu9UU24omByzMNLHQ/CBu2Ga2vGD7Lbs9Zu6s4TEHmA7OzfLqATtsLDNZL/MiUFR49juJ93laz1cG1BxC6rxRiNn7xGQVld0ymNH4ADSO1AZUQcSX4559ewA/BxkcsWKpdbAYH/SUvzEHUY+uVUJ5CYO81dEHaVq+rrvWkq9Rz96FeTNgpV62L7z85Glb8r4sZ1+HzVrlLcC9JktensuHnjNQ+4hrcR6YPOBamgenL72WNyphpVgV5bLP5sqFtjwGWkne2R1PX72dSL8oLF0ZJrpHx3xyHsf0fhHSqRmS5ePStC67CO3S5C4vNlplANJhKsIrHNC1TOFXOrjpMYVe5aC2gxR8tfkYXL3dlU8IBa12JZD+rrGiLDU68pw0M0vX1iqzh43XyevFpHC91KSCvEGq0tLDzFPD9BnijaaYPF68yZQMG+1Koy7d3zx7J/hwU+ueLD6ievRR4qPkNdeso8ckuis7a7rtzlbJhzOrJIsSUM9SSRcDUJYv2126XgQb0H3KK5GzWycNM7Q/Cu25uoAKIcqqnuIx7aq35YSeW8ptocoxnD2DQ3d2y5uR/DgkHxIvAEnID/pwNXu1exFp8a9Az5D95EVkHU4AwoxkDBAz6RXM7tt0HYCWIfVpSF1UH1A5I7PnKoQzi1qZRrtm95FXc+Y1nSpW7ZfSHbHsVj/r7HNpZ5n6gMpZZwIkrpL0lOCxL4x6xh2yr0o/AwZHWWx4nRkz8+pPCZhyuGVz/YKncgcEKkzhi57K7+7HbKlS+pKnFizpdoru6ankq9HoHCF+bKxF2EgoeLjUU5xENoJZbS0lyYYxxpkoC3MxTE3bUKvFoHrlbLQhDVCI1Oxbw7b95pt2eNlohU5+oTAnf4doCbrwhZCDiLrHrHxUOPMqphVtKy8/QkZ2M4D9frQNr6yD5453NwfRas/+sL5uxetvZZvX04ZfRaTZ5/H50qXxVG5mrFXWWGv5GU6rUmY/6Ybm2/xd2ID5Sn09aFWwLpVq1doUW+HP9TB73qO8XDIEtxj/BWVgmW+YwgM55Q+jc72tQ7e7t6PZC5HcHM2yCGfZCnlkh0/QB1n3hpYWhH1cgmzQKbdn5sg1r0jb/FQm9Xm+WsgKaHFvIq/OONwYWjEus1rKcrk8x4sFe75ETWwe2zWFdVt4lba/WLEllH2ucVsYkB95mQ9NGbGT6OQnVoiY7aBeCrryuycA862bRxhFn1muckAwxRWtB+4UJr8fdNAX+NqrZMDzRKAxFZ5e6Cs5niK3b4DcFkzlZd+TK/jFp5QPmAu/2rprgZxpcTTsl0HdJ0aV+f0ZqZZhd4MyqmR/iuAV2myC60EZrQJFPpgadu2f7JBqPJoOW6T01MnC3Svo+Wiy8t3HYlmynXqp0A7I2gfFsoFR8GyzmcGa+4GKzW9wZEeNDMgFhetW7/yzpiTTQSQsDRFb0SwWSrKx0okKA/HN2mZaZ/NbZut34vANsBsGVRwTU+u8dHJ5WBVJOe832xkXhByQxhM53qPnHl62ycD6FI3EsyXrhphtJ0yyhvYcyI0m22YAhhnGy3zlD7YMzZylHqsf93U+Nl1H/YaBUcsyattHOqyBxR10BeASZorNjnvd8S5bHlOiZQXhAczdd6jL2vc0g7DUqphvualSUyZNu0+ceaVQTKR/urBRSHFyEkYgzZ8OjYwXjOd7l4AWm/e01w1waU1M7HJowMfCsxXj3K6cachrdHLHW51QICeKBfOxvpMcneRLwGYhnqrICYKgXJCJJGMQ7TPzpLKM1iSV7EgkxqIWCHXJF4of8r0rk7XngMjJmkRZtV4b61ElJCOEMZpDsmge1Db3Oefba6rX+swQ+w0ej0g/edMoPwqI6vvEbyaUcsVZA5UzXqhZKapTnxV0elRgO+pW7Tf1fMvDyJ5WvGNDsobMGzAMsRz4sKB5dewSLLCpSjAjPblzHGaAb/TVcn8e9Cb0ah4kEsVQPOCrXH98/4gNE6cu7SyPDsbIIhptHc6gCyIexDyZNmwINK8W5d36JDb8N7ar1KNzS+XZriIVdmB6ngHhSUutGavKG2VAHMqJKxGPTgWYQDzjR93VaRgD468HBarJ5cJLSUMln+lWVfPpPd0yX7DES5hH82y1stV4G9lqJy0sdM1+XRsUFdyd5me/ahbMJCrq5Qey92lmi8ZvRo1sRaze5uv5H9LFTCzOqXyKaRdkZwQRcD6lHBgq3uJg1kMbMDfi7D0paO7qG7VNKzI33z7bTXsWDcUNvCgYmidIjQZIA/HUcKRot7ArEZF14u2AKC+mvG24A0TbuJvMNQN/D5tzaTwiogOR3rBguJCds+dyCIHIgUOQ3X72A/SCQVHeTTM2xH1iaSLOGawNqtrAy00h2VFyA80ObXDuVrkZjnBvB5QZZWjuMY9c9MsPieWmm3pDpiU/w00g9tnCkoRlhpeMmS9fHHs/NuuQ/Z1bb6JVWxNCinS2Yvld5bZZ6tWyPs76mfQsgltxm+rE1Mg4kbgRycl52IaYN/XanDplJswJ892eugxyrvsWvU9tTCzhmFsyTOSoMxlWRvXofg5PgK6YJ63e4qsr50FmdTN7V5nOwvODvfZYRIx8r05BxcPCrjkbLKtrEKGdc2KEOX1tWpzpyFt9fd0RVq0UMrxefwShkqj6QZR6bhIMv2Ge2xBMc+h92Dw8PfreOA8H/4xxzm5KlTMEQ27LmuZFBKEnt6ET5s78jmH2m1E8F7faypF52KLyZ4J7kt9ysUGcqeOXEIeoEz6qVo0t03cXG3d3cfXIe83wDhKfHbVdWpcYBqUcXDmqLKnz0aHs87HKa5aHgbq+3oHVWYdp+2jX8/bNr9jM430G69WQEjxay0lX2T/q0Wje0y13xMYlrpxFFhskjfWuLUf9Dppc6UPXS0HFwxTobxMpPmOEmIttR+/2OW8mqBaxgixPiYlx0ISAhS8G7LP2nsQ74cYQT7Y6JudNB1NUk56myetgW5G7X6750bn8jo0eY8MiIdRGItQvpvgVeWnsnhQvbbNu0cosTLy3A1aLXMwd40r13AB1lf2N8gqCz0z8cdPDhrXgRgAn0Bj3DsTz982ogMqBGS0KXSBVQBwqQJyNHZBfZd6wFenDFG9p34xNJ4MWzyZhzZ9nJXfJ8eUvMb6FecyzTm5HBZRIcWkDduTCDZ9pqzc66MVypxW5F59sPXvcaQ4d2yxCz5TLkSxYE5W2jdasFuZq8odl2C63bHT5iUrbekO0Ot7qmfFsKi8DDtk8We32s2j9oxQtpXXzOqeFYaX5IudxrgvOEzUAh0P+nlm/UA2P2Bbzdggq7gI2Nb1em4lnaeGHH7Cg5O7A/OyGnOtX74ynXENMXdGLOci5fGID0sZ2NvNjW3JY34gA82wNUCUxdeORq8u5ZkUM/x7n0mmlLz/Lyad9hjOLVjANbe/ml6841Ks4l+hie7y3O8bF2yLSLxoJP9i6jDUEhsLNwwwlVG/ibvASuFhUfGzOVpdgQiqzjNj4/b+eEUhZi3KEGaELPuxssCTGobhVJa7hzlk2vbxFr1s0yA7iJtKnS9HStBCKIgPx0SMJZch+RrBK53qGZ3lxbNyIWNYruoSXxh7EtPRD6RE7u4kf5dgvSz9ummP1EYIC7XTrSt1MbO/sOki1AgJB5kZJIwrj7gtnm8Sg7GiwwWPcFdPZJ3CkR9H9acG7SBnKogw+uURtgKA0g3jdYlZG9ej+I0NAe/opc5+UwE0SnJiKoOWOXKguVmbgRNSIOZaS6UUf7TZhL5yjA3dxQicDzpnfBavPsV+ItS2ZZY26xPOr39kLtxrML0xkil3ZnLDCpAWii5M8rZnXPn7oN2wv5TBp0zJD3MS4AhWsxqTEDX+PqBgRzm3XBkVjGKVoOCT+XBHIQgrhbG4gi/Nz2jRDVb58E51rAnNiVAVuNGyWUEatVuFqQArefFPWgnk1g2T2DBUEJi9RzzGn8vKfHTJRVoxvKJNDVFl+OokNiA1jicT1sBdPE6Wz1NWnUKqLwSFkuJD+PGfLLPkcao/VTOn7m/N6mCyFCudZ+VqlFxv81Mr6ydDsL6SZrou7Fo4uwWiYcuSIOiZi9UUOXHNMGuNPPHu2uXD/mVBbFVlakqyDBRql8orVF3y9SB1RLPt5FMJ4KAImB4Gz37GVtW3Z25Bz1SzYJYcdOTtE/RKBGjSAJusRvuRm1Jsypaz/QKJ5JjCnitxNpSXdwR+gU2HIe2RMz/CMOBfR/IQonHrOFSVALdGfZ7PEZdu2J5W87MVmz34/q3kXPiP1AV/NFoO6Ty+NN+nogHFi7Jb7EX5CVLc0j2ELMA9mC43VB329YkWcbJvc4PvyUVln6xt2krmN8vUJuprA7Yo6aeYswVm3hoCVcGoO3rzERkfz++T84lAS8mWRLCb18j1KM6WJ1Zd8fcVWZpb+iXPLwdx8fNlXV7Hsz06IviG7q+UT0aucHkJmGyXS6pqMSUpMG5dBvr52ygQ7U/QZX10nxTCV4md9dX06KQWzdYRM1A3b4639uDFqg+zacgjZSef/Kz5Hj2R44WxHKxiqZeH4o76+6WBwiW3t476+eWs4YHoQ04p6uOkKKvL4Aj27Tz3iUpRlr8xQ/5ivH5kKHDFI42AYiUNuu8JUQNVOpO6NxqNDUaJOAjJeEznsJVaHA1hsmcMDCNEcQnO9vZ279qPJYSZiPHfeqLcJAXHlye22+bNvulntrJmgEC7aHAWsSsxOLv5znV7pk9PXHgYMc7KZUP8ahklqLfdxOvGe3hyi5yZy6KwO68jOCb4io2cWCWGYpWN9bZlEdw+2hJNg75QwZVPgrWjX2n57nYXmcjIAbor+lJzIZ1Hl6KgoLkseb1SuwhYJqKH2LdYV8u6HQNtgM7DdPdN4MQbUkS8lciipze7SsFQzFmggCg4SnUsDcliAb0yZrT+cjvc4akAidV4m9fEu5xo7fm/OygzikqwEQpzSgkCNa2EZmscdzai8kKBOyShmcTLu9bdgilvKOeytebk/jxZTeJ2o5+fE5XX9qBflsNmJXWhmwfbiUr0gpxZqEEYWynuUYKE3OtuVh3kwGeNsOq1Q7/S0Ueuk/M+E2wdCWxi65DL4qq8eYTRIvVDrBckVezG2ym5nN8sdXG/orOZib2sLFlROLcUSRw3xPW3NclJuC6vPVMeScglngs4M+FlqxTxag+28Om6yTmMJBJnianq2Pmk7bvYOh4gawKl4btHI5fLXfX1ZZvDpkvgXX12+DaUNe2plGFcY6hUUjVXGdnXY2J/GIorR1hCLT5xK9kh04UqD2ETsxtJchaYQW8OeDtlah51RX6zV1nn1kpy+xoBaUQZ07WaiF7F6cU5fN4m2rOkMo+/dj9A4F2BfVNebfooT1HAH95wowioM26HfYOoCwkjcDYjc3uKph+3JAeJwtFVgHjFGoN2YftOBm9LInLHkE8s34edOD+WlZsVebFZhiRE8fGs42NuUH16lxr0VneNfLulz+pFwhySdBYnt9L8spx4VXAJuD1pO6kcMz9Ga9IrdE9WysBQ7o7oWxv1QTufkc6oFeQif6Zpz7DlGyJwk3xKDZHmwvV3a2ZdQ0MqMFCZBa+s4Liivbz8oV6ea1YEzYXzjilDK2bxT4bwtVRgk6wXdQ2gLW0I9Lpjf3aIm7R0UQkB0sbhJhFM0CvVeH7DCJls7h3Shl/Yuhi1fCnmNAcmUHdu7NHxFxpesAG9hxBCSEULS2n1ZtYzRySFWL89pX4pF6U/QcpuSa5oe6vMU8nuXgi60kle7RvmU5/44X7lLYnYylfyVa52ilmXdeQTMyK/bIIyeJJWGzitzuJA9u1cLtgGqlSI32EFBdkW1Wm0UZO/UYVv+TB45r1CtFMz9nbnjJCPfVGwFoft74PmauaFdyL4uWLSvj+RVAaUluZBLHiQsV+obUBSsYwkrrcie82csLX1jllJObN/5bN8Lc30vZvteSjosjOxNHndjD3Hzv6K8babclTjhcGnTi+UGImc8YQt/tspHF/YmmGPWsAW9nk1j193Xqzfm2HHd81gLeZC7rG3McSim2YLelFPL0rGM3kJeRVg/SOmm4Xt1pTzRS++k3Z9utkXNhMgf4LQPwuyFoLknd39HvlwRfSGXC+7qFKoyn/l6gzt7KVFY4JZe/jC9EfliWuhyqZ2gLK21AlSwZSooL2fLWcRj9i+erZgpOk4vJCfs5FVWhZuTtKrbv917Cn7Nl++61UbjjHl2cFk9cN+QvbwCF61Oe10wr5hJBCWP0kIqntfllPx6woELk3P7ssOaG4FU6WvJzJgAN7NsL27BmS0McPDVDDxWb8jNXr6tJvNGa0KGOMAcamipe/Gq6IrkUyoym/iUhoxcnOg+AKPcrwYLJuc1/jW4JknTMDIv3Gk9EAupR9Y24orNvYlJ8YXIhvTDVZhmyGZffkuG8RlCQC2urnw7RzwAiB9kcOYGYB5NM1fy5whDIveB6Ix55GLuFeylMxGE+ReXnnnXOHtZ6K+ZFZoTKvLUSHDy5rOmpkhpIVyXP3juSna9usISStMw34pctrluYguO2S86puUVV04Mw/HZS8gTJcbKrj3tXWhyobYtLwqVfzaQrwkrNLXVQBCMZNAQ3jz7HqI33GCzweN3ioBzpOXBgvzuQVWT699Cq10pGTOj5Q+q25Xo1QsbJH7BfZg5ty5/wim/fhv/Lqzfzr+L63fw79K6/Nmm5fU7+ffYupzLRVAr6d3z8dUG19GSO8GyZ3mHZE8Kzql1gV6GDSa5fO7q+grzFOnKjvx7VS2od0ivrsrfsbumLLBry23+va4sI75+tbLWMTRuIFcqNN0AHlbjzER6IzaD5CaxnDcHNf59uMyCscCPCGvMKJlHClePQtRC59F38c9jyqvS+rGFYlHYfJx7BPL4lvT8TS0ZwDc7e/wE+ePIpN9SwgCQPhFjQPKtYcH8icUnnSkKn9+GpSO5JTQCulUGc5sAbpfB3eH+XN+Ti+av9d1ZLMvMPCVsGhP1VMPC086a5OnNSqltB/ztYaPTMl8wfEalJuP5DiIlMsJnVgvFQMb1nZV60/xx5mcVO+22kUvBvu4hVxT+3dMBVkY7mbwyeSvDQNS4gH0kv9rotC2tNS7aMJpmJtdr4AhbldVKUC3b76CfrgZr9hXVGTHjLflhjXp2om51e3l3R6Fpb9BsVzcXC3WWILkS4bxmNWDa6VpkXnYLtVJfFQKBG+Sqm+A1NFU+123prBMqsrlKGBRa5o9bns4+fDoxU/eHs846tXqqq4/m0M0521F6TLki77MbhofHlWcf8X58IqgnSku2A7LfaifgSU6ct0iKNgmft+LxCBe3sYVIr09G47Pfhn9Kq3GW5KkkCeGnkRfahqunt+XxGZlntvEmika3Cul06tJ6UDrDnSh5T74NXQqMRvtV+1wrB9Mdx0k+yWfaLCQwsX0i3sV09peSebZ9LicYx8JSi+tYC10xX9yU3MmwWamnfJ2Ca5LLSVBio4xXiDbZXq9st4JAeiV/FfNdbFj41TIC0mtEfhZ0rTBIep2kts/rDSeJsG6gC0En+zAhS3qjpI7UTSI1HAiyxQJ3yIJ3ptqQ2arWCq27OqZFzb7kI4ee1cx4Gga7XClY5Gaau8sqlmXvuL18JnfZnAl7xMwSPdJNyaPKrDwHe2xQa65jW6XHb1oNTOj6m7FfdmE/geUTtMwfkv2WSj2EDdvq25LVdrvos3lqRuHOMLFn346NYXLs07RnYGm4K0mK30FLEfd3yvhIn5W44C3RNLS4eyuFMCncRqGdFG6n0EkKd1DYSApPpmBUVQp3UrhbCobHe1LLf6/sIXbqvmu2w3y3rF+3tCl+j0xj0HWyuo8NeM0Yk27tyO+8PN2P+yX5dbD5nqP5lKo5C1qPJ8I3EM/hQTyHbFUAHJ8h/dbqtsDl5CcBodqYg86AgNDRw7VfEje56X7UpTz3/X41+34/BV0mrChe2jyyjxkslMR6XOKz/5S80iV/ZEZszlpIZX7C0Z79qXRtMgKRGgBeAfOa/lRsdhzIzx0HYurdg1z8rSMHgsHI5fPE4QxiYTLpOUIrOj/Xg3hXxs+TPwGRnmxQP2afjE78GK9iptS3NcnztNxFtHDhpkLuAziWB6bH9+O6zaGZXwfOZvXDzOpF9QGVTK3XS4AM09H7IPTWe8RaMj82TNATTdjJ1suH4y5qkWHgIzAQEE8xfqUL8kVJmQZyB/AJcOJRby/eIY6vPo7jHqQYDgzFbYkTWeRZtRCgLjbpJ7NV9GNk9SlkNezZn6XO6LalijvH9FSKixtyfgzaxkbqDkaE1EsDx354T2jtbw4T3+4WmuJ45Bt18/yGWaO0EFqVbOLnR5wZekhW5hZanOFBUELWvJo2RR3MfZuOmWSLD6hgzzd7f/JVZEvQSi9H2Gkob+FPKT11H3cwJW6PbKmOnBisBLZh4NPEO0sPEX+Cmo1DyLSOWPwS+vBY0JnIXMOGfDaVb2JjFYlnSGzroQN5ueQsUek3ODHbvNyzyE+2YXX2wyEKHK1RPVvM4LxXIziJeMnpa0PqheuCfDFf56e442jsSLpjUgkSy8rc7V0gyfWj7d7+kDaizssqf2kqtlpz6W9IHZgi15sptjvxpT+E2SMIyD3VwPyJeu/+5P2KPyBIT9CYUWMNoumWPHbJH1zUFReHOb2QUl8Vg2d+fRklHTB2OcBiQ73t3u5gKMdUphAuuIMiMpehCeQLOZ3fj83ZVI4uW/ZH4rDh+jAUWpa49rjhtxBoyg1/WrDjDaWXLLIBUC24Sd6i2pYGFqcttg2wLgXaxFJp62L1FRazaZgAEmz1ZRarQVX/nOCY5ZBsKUpzI8ldjFyvmrDiDAUq3AzJNxqNvHTM0AWF2wPbNlZfIxYnwjGNUPN4a4fblY1UxmxnjED9E11PHGdf5SweWfJfZ838f5ELAADtmHtwVPUVx3/37gOSEOKomKUGDQpKEXaDxg6ju3eJZuPQihY7Sq3dCEJAq8QO7mrLQAjEBHCjUB9VUBCzQGmKGSlo5W5slYdWMgq7PBQ0GBXqLk+fyEA77ef8bmJo67T/d8pwOSfndx7f33ndGwzDVC7Vb/lzBzo9hQ+p0q0LjPqJ/a8fNX78z26aemf5zZXjY5OnTS67cfotV9ylzlHnKmOAOt8YpNxuQylTuQ1P5b2T49NramPKa/Sdo5TKU/2E8EeTs9QrplKG0nHUYOU2PT+cNK2mdNR/0j9H2CLjATE0teFFYji2NlYzo3bSPaU31t7zy9JrJ9XeP+k+5VX/3c0jBgDShQ97xZcBiELP5HtrY5tb76qtmVFzX2nFhB+pAQ8qNaYUhMOwqlff1cHUuJopd8WnKzXc+DcD93ylKjDq8uD9QV90ijk/PzrGdbcvGnOLuA//lHmUt4i/XEOryMEYZHVl9kXKMMyGTQOm9MoNb50vWk6qzAc33Xxvr9z01sXSo5ThMhtvWjCgV+7yzi6zZynDbTZuit7QK3eL/xHK8JiN5Q2tvXKPd9b96b+J/8aVT+3olXu7/XvNpvyri3vlfbr99DGbNo2L9Mr7emdXxxZq/ZmLJ/XK87r1+5pN5clFvfJ8udfZysgzm46s2tgrL/DOzkSKlJFvNq389K1eeT/Rn6qMAnN+W94ZeSsU/18qox+ZfvaSXnl/b111bKzKM4x/Lpo5J5a+0nXuroaP3jjpGjF19I7rzqs7fXiFq8g71q082T6qH5XLVybN00f1VarQ6D+Hti4qUrou1EDyLbmVPErOJD+SC7m33FHuI9gFp2A6B4d0oFFvGHMNNc9QDbSGoRoN1WSo+YZaYKiFhlplzHl6yUBzm6E6DPdbhnobJVM9aRpeAxy0H4AKerrLaeuEUgd1Zy/0dU4sdNr7O/VrW1sHGReoC9UlBh02a9/evbMy6bQ8ouqSf5hQQ12qStz9jYFz+fn8X6ybcedQ9wjlNxoZTG/hSiai2b/UovPaXZnIZM0E7GFWrqUj6Koq7gw1+2eGkonloUzk7yFGcUwoYI+xhPqiD1lakMpuQLAiVB3bLYIuTE5Yzf7hVibiDruokxWNFYZzLUs0dUVjGzXji2asZKJPmLCHrYBthJOJU4Q/Jj484UxkL1recFXxKxZI37WEceVadqK6g3BbrFR2v+VKJjZwchRHSzV1xdMNmqmO1UA/FJNrAbIbszLon0RjEJ5/awnNtSQcQbP/J8QuQzjScqWy16BhYDKFg0wIyA0IniMPSzUFYatmkomXwPJyiDtsxvv2UDzdgcmpEMB2AepsTt/FT5llymWEwdbDrb4ioac5XSGqR4g7ANudwB4fxFkKMOXtPYVRz59ZpXi6RjOZyGWYbQ26qmMfUoMZFGYFlNhSlGa/hfczqhRPvwiQFQj2WN0mJ4B8GfegSuJUiiJRhHLl1zQTsPdD0VDqr6T8BEn1Ujp8NPv7h8WpUB1FGAkrGt04xESA7XeQilOBLlGEKsMXXQpMkhBPr9dMMrEF3d2S0d0wHiB2ksjLBfNBfridFB1EQDxhMpFVPJ0UMmVpE+rFqfj4QCq7HvWjxFqqqStg12sm13K7oyF4xUTqrn1IM4hToTqKMBJWNDQOMRFgjg+QilOBLlGEqiZTGfH0lZyuskxhmDxlNvsfDUEdJtdSEKYlRuGlm4mnc5bpi47WDF37A7Ei/TGq5g0ziouoQyFD0qYpgg7NJBNdUMZIqRMANMJ2VjFshwW5l3rswqEXwTqB4g3jVJmZyDvi3WGqin8nqXsHL2/yvIGTfQLgDxgeRu0ZTYm3UDOCKNfysWhMIJfvoV6FoEPiyU3b0XKuruaTh1R2Nafc0WEOC4qDwTOYb44KwsqQhVNVPDIMsNsA1s0oNUQQ3kYd3cSfwpMNUYda4L6J/mzCvSKCJtrt9wgWaQrCJzQjY8ukyhw/S7VthqMFX+0hFstaIieuxvtvOLnqKjad0BSXeQIAnamAvUDCpZjSqQBR7dFYhdAgi60E5tVgNOYhfk2IDHXKlBG/M0RlLFMYuYTa6laGnX2GmMxvJjJNM7mWy7Q9/dMFxFqag95RJ2VuZMsGOZWxXejMb8A+Y8uKybdu2ariJZqi8YJmUtnXuXue9ItMiYeOOobglPSxYn5z2Ms+2m7hI59u2gA4oY9INwpzv0WB9oGwm1FqpWVWxz4AzUoZwg+Is5Ec7UGwTbC+zQ/7gPZHPB2QFd3GyTG0lmiKYJ5mUtk70PxIWqsCaO8Ayw/dKkhKSOl67EssO7tckJTgsM45afZXYV/GyQUSrpIbHGegpmGyVYreSOGWUYFlmrLN12om17KRCG0hfLxO3FcRbCfCAdF4F4du7DtxfoFl5lr6MjEFAtXDbmuniqfR+LlspcM0fTqYiciLKHs1LZXCSXl7T3llpbXDlYQp/5PolEsPy3tVS4xeJmAPCnOxeuBXhgn5fA9z1DkSRiv3OFSv8R0ry4P2O2OLyLh9w3DiHEHl+1kpbjRY3rFv0DCDKedyFv9QaYfptNRwKj+dxTXKEVQVj9Ya8XTQMcm1VMjGwH+F9FiJZpz3JBoBu5LMjqalKgGID2HEqWjoKGIiYcWHpod4k/Wkigj/nwTN/G9Owsff2q7N/su5WjeTyh6Sr7vRmsHldbiSWkwnOq80+awI2IW80lo05Y5rNJPKtnEDLXiJYIU0mM3VCsM4s7H9izTGS0g+4bQNQVbysxrAOYIv01R7F0bqmYnwqRiwfwyzl+c6AG1z3mgBu510XIlWq7yy/nXETtHQ8fRXhNppmfLh4YtiKB868jkXsG0E70uLbcDlAZ41CA7J23MZGsfRaNaUy9+tGV/0elAdFB8jQfIe3TIS7x2OQL6Cm/3XgGaDfKfeApq1/DCPZ7U0ZRv2z0gv7sbuMX7I0hz14v00oX6Kw9McDHYEycR+hukIPhZLL+xH3U13b+HAH8R7K4LydnnxC0WjXDPN/s8ZxoNBfDzA7D1Eg1XwNVsk37gDiXCheL8Y1SOoVQB3k3ifSPynCLdAUy6T1Ew0tp5L0a3R2GZUP0ewGYQD5bqbqdUVPBsRRKSAL+B9AnClwSbK6N2KbVzCFaDSgGpHyM7+WmznstXkG30uCP/sCFLZLkK+zN74Qpx9SgFdLIFhhO0bJmW3oi5fwM2aYrJRM9WxnTh2icZRKvQFj1Nu1utcWjxgnwUkeoLoQagyA/aj+LxKVvhOh4mnR9CiHPH7pcPIEvNFfXK0zmF6/IjHIQT5lWXa2TyGoZupKo5YKA0hdjcjR+ppIORaJmtTpGuCOqBkRDPN/kc4GiaTjLIwsv70UTxdwG1hkolRDPmlFlZXOEx1bIJzRHodxhetcIBXFQ91mHhaWolBTmVPOoyMCCeSCQePesxDktSXlE3v3c8IfB7W7yMYFKbDXsdwCNO8WlOKslgzyUQdlysVk6hWTSa+j8Ni2QjygXwWq2g0jU3ZhMlETOpYyXCxzPkNCsFnaNVQbSYtmZhJgg+QtoX46LJcdvZxTt/jeRbhXoscbaHC26Up9mDbgV2W083i7DS27Qg8pOEFWRGya1aifjb0UZnjYph6BMWUapwjSCb6c48iLmZL6/cJ84HPLBwnfr38Vp3Ge6Q9GlulKe37gGZINHe4I8i2OEUfX8SyfZGu5UtWqYkMZj6LYTx+xkkRh2JCOF90GKGGAjvM2ObLdWUpdKE+Ew09WIu4w1qcrdKUtLdrJhrbTj22yYfzR9wwS6gj+CmSO3yNs+Fc6msA3eAI2PqoH+NgnqweSejDnO7i4HF5c22lIEsRrkNrhSBshFkrKSsj3MtEOMnE7RDBYl4FnyBYzNpgzQvji0ra9kAvDgOoPyYBEjoW798TjXmoB6nBGk1JiLxbg2T4ECHR4K1FlgM0Rj/M8BGwz+U/EXyMzQBonrwZnD5U6h8=(/figma)--&gt;&quot;&gt;&lt;/span&gt;&lt;span style=&quot;&quot;&gt;contêineres AWS&lt;/span&gt;" style="text;strokeColor=none;align=center;fillColor=none;html=1;verticalAlign=middle;whiteSpace=wrap;rounded=0;fontColor=#3b3a3a;" parent="1" vertex="1">
          <mxGeometry x="523.5500000000001" y="133.25" width="54.3" height="30" as="geometry" />
        </mxCell>
        <mxCell id="4dynubgF51ZRnNJFd6d_-339" value="" style="edgeStyle=orthogonalEdgeStyle;rounded=0;orthogonalLoop=1;jettySize=auto;html=1;fillColor=#f5f5f5;strokeColor=#666666;" parent="1" source="4dynubgF51ZRnNJFd6d_-318" target="UEzPUAAOIrF-is8g5C7q-114" edge="1">
          <mxGeometry relative="1" as="geometry" />
        </mxCell>
        <mxCell id="4dynubgF51ZRnNJFd6d_-318" value="" style="shape=image;verticalLabelPosition=bottom;labelBackgroundColor=#ffffff;verticalAlign=top;aspect=fixed;imageAspect=0;image=data:image/svg+xml,PHN2ZyB4bWxuczpjYz0iaHR0cDovL2NyZWF0aXZlY29tbW9ucy5vcmcvbnMjIiB4bWxuczpkYz0iaHR0cDovL3B1cmwub3JnL2RjL2VsZW1lbnRzLzEuMS8iIHhtbG5zOmlua3NjYXBlPSJodHRwOi8vd3d3Lmlua3NjYXBlLm9yZy9uYW1lc3BhY2VzL2lua3NjYXBlIiB4bWxuczpyZGY9Imh0dHA6Ly93d3cudzMub3JnLzE5OTkvMDIvMjItcmRmLXN5bnRheC1ucyMiIHhtbG5zOnNvZGlwb2RpPSJodHRwOi8vc29kaXBvZGkuc291cmNlZm9yZ2UubmV0L0RURC9zb2RpcG9kaS0wLmR0ZCIgeG1sbnM6c3ZnPSJodHRwOi8vd3d3LnczLm9yZy8yMDAwL3N2ZyIgeG1sbnM9Imh0dHA6Ly93d3cudzMub3JnLzIwMDAvc3ZnIiB4bWxuczp4bGluaz0iaHR0cDovL3d3dy53My5vcmcvMTk5OS94bGluayIgdmVyc2lvbj0iMS4xIiBpZD0ic3ZnNDkxMzUiIGlua3NjYXBlOnZlcnNpb249IjAuOTIuMyAoMjQwNTU0NiwgMjAxOC0wMy0xMSkiIHNvZGlwb2RpOmRvY25hbWU9Impzb24uc3ZnIiB4PSIwcHgiIHk9IjBweCIgdmlld0JveD0iMCAwIDI2LjcyIDM1LjE1IiBzdHlsZT0iZW5hYmxlLWJhY2tncm91bmQ6bmV3IDAgMCAyNi43MiAzNS4xNTsiIHhtbDpzcGFjZT0icHJlc2VydmUiPiYjeGE7PHNvZGlwb2RpOm5hbWVkdmlldyBib3JkZXJjb2xvcj0iIzY2NjY2NiIgYm9yZGVyb3BhY2l0eT0iMSIgZml0LW1hcmdpbi1ib3R0b209IjAiIGZpdC1tYXJnaW4tbGVmdD0iMCIgZml0LW1hcmdpbi1yaWdodD0iMCIgZml0LW1hcmdpbi10b3A9IjAiIGdyaWR0b2xlcmFuY2U9IjEwIiBndWlkZXRvbGVyYW5jZT0iMTAiIGlkPSJuYW1lZHZpZXc0OTEzNyIgaW5rc2NhcGU6Y3VycmVudC1sYXllcj0ic3ZnNDkxMzUiIGlua3NjYXBlOmN4PSIxNy44MTIxNTYiIGlua3NjYXBlOmN5PSIyMy40MzU4OTYiIGlua3NjYXBlOnBhZ2VvcGFjaXR5PSIwIiBpbmtzY2FwZTpwYWdlc2hhZG93PSIyIiBpbmtzY2FwZTp3aW5kb3ctaGVpZ2h0PSIxMDE3IiBpbmtzY2FwZTp3aW5kb3ctbWF4aW1pemVkPSIxIiBpbmtzY2FwZTp3aW5kb3ctd2lkdGg9IjE5MjAiIGlua3NjYXBlOndpbmRvdy14PSItOCIgaW5rc2NhcGU6d2luZG93LXk9Ii04IiBpbmtzY2FwZTp6b29tPSIxMS40MDYwODkiIG9iamVjdHRvbGVyYW5jZT0iMTAiIHBhZ2Vjb2xvcj0iI2ZmZmZmZiIgc2hvd2dyaWQ9ImZhbHNlIj4mI3hhOwk8L3NvZGlwb2RpOm5hbWVkdmlldz4mI3hhOzxnIGlkPSJnNDkxMzMiIHRyYW5zZm9ybT0idHJhbnNsYXRlKC0xMC45Mjg2LC0xMC45MzE0KSI+JiN4YTsJPHRpdGxlIGlkPSJ0aXRsZTQ5MDYxIj5QYWdlLTE8L3RpdGxlPiYjeGE7CTxnIGlkPSJncm91cDM5ODgtMSIgdHJhbnNmb3JtPSJ0cmFuc2xhdGUoMTAuOTI4NiwtMTAuOTI4NikiPiYjeGE7CQk8dGl0bGUgaWQ9InRpdGxlNDkwNjMiPkpTT04uMjY2PC90aXRsZT4mI3hhOwkJPGcgaWQ9Imdyb3VwMzk4OS0yIj4mI3hhOwkJCTx0aXRsZSBpZD0idGl0bGU0OTA2NSI+SlM8L3RpdGxlPiYjeGE7CQkJPGcgaWQ9Imdyb3VwMzk5MC0zIj4mI3hhOwkJCQk8dGl0bGUgaWQ9InRpdGxlNDkwNjciPlNoZWV0LjM5OTA8L3RpdGxlPiYjeGE7CQkJCTxnIGlkPSJzaGFwZTM5OTEtNCI+JiN4YTsJCQkJCTx0aXRsZSBpZD0idGl0bGU0OTA2OSI+U2hlZXQuMzk5MTwvdGl0bGU+JiN4YTsJCQkJCTxwYXRoIGlkPSJwYXRoNDkwNzEiIGlua3NjYXBlOmNvbm5lY3Rvci1jdXJ2YXR1cmU9IjAiIHN0eWxlPSJmaWxsOiNFOUU5RTA7IiBkPSJNMTguOTQsMjEuODZIMC45MWMtMC41LDAtMC45MSwwLjQxLTAuOTEsMS4yMSAgICAgICB2MzMuMzFjMCwwLjIyLDAuNDEsMC42MywwLjkxLDAuNjNoMjQuOWMwLjUsMCwwLjkxLTAuNDEsMC45MS0wLjYzVjMwYzAtMC40My0wLjA2LTAuNTctMC4xNi0wLjY4bC03LjIzLTcuMyAgICAgICBDMTkuMjMsMjEuOTIsMTkuMDksMjEuODYsMTguOTQsMjEuODZ6Ii8+JiN4YTsJCQkJPC9nPiYjeGE7CQkJCTxnIGlkPSJzaGFwZTM5OTItNiIgdHJhbnNmb3JtPSJ0cmFuc2xhdGUoMTkuMjYyLC0yNy42MTkzKSI+JiN4YTsJCQkJCTx0aXRsZSBpZD0idGl0bGU0OTA3NCI+U2hlZXQuMzk5MjwvdGl0bGU+JiN4YTsJCQkJCTxwYXRoIGlkPSJwYXRoNDkwNzYiIGlua3NjYXBlOmNvbm5lY3Rvci1jdXJ2YXR1cmU9IjAiIHN0eWxlPSJmaWxsOiNEOUQ3Q0E7IiBkPSJNMCw0OS41N3Y3LjQ0aDcuMzZMMCw0OS41N3oiLz4mI3hhOwkJCQk8L2c+JiN4YTsJCQkJPGcgaWQ9InNoYXBlMzk5My04Ij4mI3hhOwkJCQkJPHRpdGxlIGlkPSJ0aXRsZTQ5MDc5Ij5TaGVldC4zOTkzPC90aXRsZT4mI3hhOwkJCQkJPHBhdGggaWQ9InBhdGg0OTA4MSIgaW5rc2NhcGU6Y29ubmVjdG9yLWN1cnZhdHVyZT0iMCIgc3R5bGU9ImZpbGw6I0U5QUM0NzsiIGQ9Ik0yNS44MSw1Ny4wMUgwLjkxQzAuNDEsNTcuMDEsMCw1Ni42LDAsNTYuMDkgICAgICAgdi05Ljc1aDI2LjcydjkuNzVDMjYuNzIsNTYuNiwyNi4zMSw1Ny4wMSwyNS44MSw1Ny4wMXoiLz4mI3hhOwkJCQk8L2c+JiN4YTsJCQkJPGcgaWQ9Imdyb3VwMzk5NC0xMCIgdHJhbnNmb3JtPSJ0cmFuc2xhdGUoNC45NzA4NSwtMTUuMDY1MSkiPiYjeGE7CQkJCQk8dGl0bGUgaWQ9InRpdGxlNDkwODQiPlNoZWV0LjM5OTQ8L3RpdGxlPiYjeGE7CQkJCQk8ZyBpZD0ic2hhcGUzOTk1LTExIj4mI3hhOwkJCQkJCTx0aXRsZSBpZD0idGl0bGU0OTA4NiI+U2hlZXQuMzk5NTwvdGl0bGU+JiN4YTsJCQkJCQk8cGF0aCBpZD0icGF0aDQ5MDg4IiBpbmtzY2FwZTpjb25uZWN0b3ItY3VydmF0dXJlPSIwIiBzdHlsZT0iZmlsbDojRTlBQzQ3OyIgZD0iTTMuMTEsNDguODV2LTIuNTEgICAgICAgIGMwLTAuMzUsMC4yOC0wLjYzLDAuNjItMC42M3MwLjYyLTAuMjgsMC42Mi0wLjYzYzAtMC4zNC0wLjI4LTAuNjMtMC42Mi0wLjYzYy0xLjAzLDAtMS44NywwLjg1LTEuODcsMS44OXYyLjUxICAgICAgICBjMCwwLjY5LTAuNTUsMS4yNS0xLjI0LDEuMjVDMC4yOCw1MC4xLDAsNTAuMzksMCw1MC43M2MwLDAuMzUsMC4yOCwwLjYzLDAuNjIsMC42M2MwLjY5LDAsMS4yNCwwLjU2LDEuMjQsMS4yNnYyLjUxICAgICAgICBjMCwxLjAzLDAuODQsMS44OCwxLjg3LDEuODhjMC4zNCwwLDAuNjItMC4yOCwwLjYyLTAuNjNjMC0wLjM1LTAuMjgtMC42My0wLjYyLTAuNjNzLTAuNjItMC4yOC0wLjYyLTAuNjJ2LTIuNTEgICAgICAgIGMwLTAuNzYtMC4zNC0xLjQzLTAuODYtMS44OUMyLjc3LDUwLjI3LDMuMTEsNDkuNiwzLjExLDQ4Ljg1eiIvPiYjeGE7CQkJCQk8L2c+JiN4YTsJCQkJCTxnIGlkPSJzaGFwZTM5OTYtMTMiIHRyYW5zZm9ybT0idHJhbnNsYXRlKDcuMTQ1NTksLTcuNTMyNTQpIj4mI3hhOwkJCQkJCTx0aXRsZSBpZD0idGl0bGU0OTA5MSI+U2hlZXQuMzk5NjwvdGl0bGU+JiN4YTsJCQkJCQk8ZWxsaXBzZSBpZD0iZWxsaXBzZTQ5MDkzIiBzdHlsZT0iZmlsbDojRTlBQzQ3OyIgY3g9IjAuOTMiIGN5PSI1Ni4wNyIgcng9IjAuOTMiIHJ5PSIwLjk0Ii8+JiN4YTsJCQkJCTwvZz4mI3hhOwkJCQkJPGcgaWQ9InNoYXBlMzk5Ny0xNSIgdHJhbnNmb3JtPSJ0cmFuc2xhdGUoMTEuODA1OCkiPiYjeGE7CQkJCQkJPHRpdGxlIGlkPSJ0aXRsZTQ5MDk2Ij5TaGVldC4zOTk3PC90aXRsZT4mI3hhOwkJCQkJCTxwYXRoIGlkPSJwYXRoNDkwOTgiIGlua3NjYXBlOmNvbm5lY3Rvci1jdXJ2YXR1cmU9IjAiIHN0eWxlPSJmaWxsOiNFOUFDNDc7IiBkPSJNMy43Myw1MC4xYy0wLjY5LDAtMS4yNC0wLjU2LTEuMjQtMS4yNSAgICAgICAgdi0yLjUxYzAtMS4wNC0wLjg0LTEuODktMS44Ny0xLjg5QzAuMjgsNDQuNDUsMCw0NC43NCwwLDQ1LjA4YzAsMC4zNSwwLjI4LDAuNjMsMC42MiwwLjYzczAuNjIsMC4yOCwwLjYyLDAuNjN2Mi41MSAgICAgICAgYzAsMC43NSwwLjM0LDEuNDIsMC44NiwxLjg4Yy0wLjUyLDAuNDYtMC44NiwxLjEzLTAuODYsMS44OXYyLjUxYzAsMC4zNC0wLjI4LDAuNjItMC42MiwwLjYyUzAsNTYuMDMsMCw1Ni4zOCAgICAgICAgYzAsMC4zNSwwLjI4LDAuNjMsMC42MiwwLjYzYzEuMDMsMCwxLjg3LTAuODUsMS44Ny0xLjg4di0yLjUxYzAtMC43LDAuNTUtMS4yNiwxLjI0LTEuMjZjMC4zNCwwLDAuNjItMC4yOCwwLjYyLTAuNjMgICAgICAgIEM0LjM1LDUwLjM5LDQuMDcsNTAuMSwzLjczLDUwLjF6Ii8+JiN4YTsJCQkJCTwvZz4mI3hhOwkJCQkJPGcgaWQ9InNoYXBlMzk5OC0xNyIgdHJhbnNmb3JtPSJ0cmFuc2xhdGUoNy40NTYyNywtMS44ODMxNCkiPiYjeGE7CQkJCQkJPHRpdGxlIGlkPSJ0aXRsZTQ5MTAxIj5TaGVldC4zOTk4PC90aXRsZT4mI3hhOwkJCQkJCTxwYXRoIGlkPSJwYXRoNDkxMDMiIGlua3NjYXBlOmNvbm5lY3Rvci1jdXJ2YXR1cmU9IjAiIHN0eWxlPSJmaWxsOiNFOUFDNDc7IiBkPSJNMC42Miw1My44N0MwLjI4LDUzLjg3LDAsNTQuMTUsMCw1NC41djEuODggICAgICAgIGMwLDAuMzUsMC4yOCwwLjYzLDAuNjIsMC42M3MwLjYyLTAuMjgsMC42Mi0wLjYzVjU0LjVDMS4yNCw1NC4xNSwwLjk2LDUzLjg3LDAuNjIsNTMuODd6Ii8+JiN4YTsJCQkJCTwvZz4mI3hhOwkJCQk8L2c+JiN4YTsJCQk8L2c+JiN4YTsJCTwvZz4mI3hhOwkJPGcgaWQ9Imdyb3VwMzk5OS0xOSIgdHJhbnNmb3JtPSJ0cmFuc2xhdGUoMy44MTMzNCwtMi40NTc4MSkiPiYjeGE7CQkJPHRpdGxlIGlkPSJ0aXRsZTQ5MTA5Ij5KU09OLjM2NjY0PC90aXRsZT4mI3hhOwkJCTxnIGlkPSJzaGFwZTQwMDAtMjAiIHRyYW5zZm9ybT0idHJhbnNsYXRlKDAsLTUuMzA5NzJlLTUpIj4mI3hhOwkJCQk8dGl0bGUgaWQ9InRpdGxlNDkxMTEiPlNoZWV0LjQwMDA8L3RpdGxlPiYjeGE7CQkJCTxwYXRoIGlkPSJwYXRoNDkxMTMiIGlua3NjYXBlOmNvbm5lY3Rvci1jdXJ2YXR1cmU9IjAiIHN0eWxlPSJmaWxsOiNGRkZGRkY7IiBkPSJNMy40OCw1MS4xN3Y0LjQzYzAsMC4yNi0wLjA1LDAuNDktMC4xNSwwLjY3ICAgICAgYy0wLjA5LDAuMTgtMC4yMywwLjMzLTAuMzksMC40NGMtMC4xNiwwLjExLTAuMzUsMC4xOS0wLjU3LDAuMjNjLTAuMjEsMC4wNS0wLjQzLDAuMDctMC42NiwwLjA3Yy0wLjExLDAtMC4yNC0wLjAxLTAuMzktMC4wNCAgICAgIGMtMC4xNi0wLjAyLTAuMzEtMC4wNS0wLjQ4LTAuMWMtMC4xNi0wLjA1LTAuMzEtMC4xMS0wLjQ2LTAuMTdDMC4yMyw1Ni42NCwwLjEsNTYuNTcsMCw1Ni40OWwwLjM5LTAuNjIgICAgICBjMC4wNSwwLjAzLDAuMTMsMC4wNywwLjIyLDAuMTFjMC4xLDAuMDQsMC4yLDAuMDcsMC4zMiwwLjExYzAuMTEsMC4wMywwLjIzLDAuMDYsMC4zNSwwLjA5YzAuMTIsMC4wMiwwLjI0LDAuMDMsMC4zNSwwLjAzICAgICAgYzAuMjcsMCwwLjQ5LTAuMDUsMC42NS0wLjE1YzAuMTYtMC4xMSwwLjI1LTAuMjksMC4yNi0wLjU0di00LjM1TDMuNDgsNTEuMTd6Ii8+JiN4YTsJCQk8L2c+JiN4YTsJCQk8ZyBpZD0ic2hhcGU0MDAxLTIyIiB0cmFuc2Zvcm09InRyYW5zbGF0ZSg0Ljc4NDA1LC0wLjAwNzg1ODM4KSI+JiN4YTsJCQkJPHRpdGxlIGlkPSJ0aXRsZTQ5MTE2Ij5TaGVldC40MDAxPC90aXRsZT4mI3hhOwkJCQk8cGF0aCBpZD0icGF0aDQ5MTE4IiBpbmtzY2FwZTpjb25uZWN0b3ItY3VydmF0dXJlPSIwIiBzdHlsZT0iZmlsbDojRkZGRkZGOyIgZD0iTTMuMyw1NS40MmMwLDAuMjEtMC4wNCwwLjQtMC4xMiwwLjYgICAgICBjLTAuMDksMC4xOS0wLjIxLDAuMzYtMC4zNiwwLjUxYy0wLjE2LDAuMTQtMC4zNSwwLjI2LTAuNTcsMC4zNWMtMC4yMywwLjA5LTAuNDksMC4xMy0wLjc4LDAuMTNjLTAuMTIsMC0wLjI1LTAuMDEtMC4zOC0wLjAyICAgICAgYy0wLjEzLTAuMDEtMC4yNi0wLjA0LTAuNC0wLjA3Yy0wLjEzLTAuMDMtMC4yNi0wLjA3LTAuMzgtMC4xMkMwLjE5LDU2Ljc0LDAuMDksNTYuNjgsMCw1Ni42bDAuMTYtMC42NiAgICAgIGMwLjA3LDAuMDQsMC4xNywwLjA4LDAuMjgsMC4xMmMwLjExLDAuMDMsMC4yMiwwLjA3LDAuMzQsMC4xYzAuMTIsMC4wNCwwLjI0LDAuMDYsMC4zNSwwLjA4YzAuMTIsMC4wMywwLjIzLDAuMDQsMC4zNCwwLjA0ICAgICAgYzAuMzEsMCwwLjU1LTAuMDgsMC43Mi0wLjIyYzAuMTYtMC4xNSwwLjI1LTAuMzcsMC4yNS0wLjY2YzAtMC4xNy0wLjA2LTAuMzItMC4xOC0wLjQ0Yy0wLjEyLTAuMTMtMC4yNy0wLjI0LTAuNDQtMC4zNCAgICAgIGMtMC4xOC0wLjEtMC4zNy0wLjItMC41OC0wLjNjLTAuMi0wLjEtMC40LTAuMjItMC41OC0wLjM2Yy0wLjE4LTAuMTMtMC4zMy0wLjI5LTAuNDQtMC40OGMtMC4xMi0wLjE4LTAuMTgtMC40MS0wLjE4LTAuNjkgICAgICBjMC0wLjI1LDAuMDQtMC40OCwwLjE0LTAuNjdjMC4wOS0wLjIsMC4yMS0wLjM2LDAuMzctMC41czAuMzQtMC4yNCwwLjU1LTAuMzFjMC4yMS0wLjA4LDAuNDMtMC4xMSwwLjY2LTAuMTEgICAgICBjMC4yNCwwLDAuNDgsMC4wMiwwLjcyLDAuMDZjMC4yNCwwLjA1LDAuNDMsMC4xMiwwLjU4LDAuMjJDMy4wMyw1MS41NCwzLDUxLjYyLDIuOTYsNTEuN2MtMC4wNSwwLjA4LTAuMDgsMC4xNS0wLjEyLDAuMjIgICAgICBjLTAuMDQsMC4wNy0wLjA3LDAuMTMtMC4wOSwwLjE3Yy0wLjAzLDAuMDUtMC4wNCwwLjA4LTAuMDUsMC4wOGMtMC4wMy0wLjAxLTAuMDYtMC4wMy0wLjEtMC4wNmMtMC4wNC0wLjAzLTAuMS0wLjA1LTAuMTctMC4wOCAgICAgIGMtMC4wNy0wLjAyLTAuMTctMC4wNC0wLjI5LTAuMDVjLTAuMTEtMC4wMS0wLjI3LTAuMDEtMC40NSwwLjAxYy0wLjEsMC4wMS0wLjIsMC4wNC0wLjI5LDAuMDhjLTAuMSwwLjA1LTAuMTgsMC4xMS0wLjI1LDAuMTkgICAgICBjLTAuMDcsMC4wNy0wLjEzLDAuMTUtMC4xNywwLjI0Yy0wLjA0LDAuMDktMC4wNiwwLjE4LTAuMDYsMC4yNmMwLDAuMiwwLjA2LDAuMzcsMC4xNywwLjVjMC4xMiwwLjEyLDAuMjcsMC4yMywwLjQ0LDAuMzMgICAgICBjMC4xOCwwLjA5LDAuMzcsMC4xOSwwLjU4LDAuMjhjMC4yLDAuMDgsMC4zOSwwLjE5LDAuNTcsMC4zMmMwLjE4LDAuMTMsMC4zMywwLjI5LDAuNDQsMC40OUMzLjI0LDU0Ljg3LDMuMyw1NS4xMiwzLjMsNTUuNDJ6Ii8+JiN4YTsJCQk8L2c+JiN4YTsJCQk8ZyBpZD0ic2hhcGU0MDAyLTI0IiB0cmFuc2Zvcm09InRyYW5zbGF0ZSg4LjkzNjUyKSI+JiN4YTsJCQkJPHRpdGxlIGlkPSJ0aXRsZTQ5MTIxIj5TaGVldC40MDAyPC90aXRsZT4mI3hhOwkJCQk8cGF0aCBpZD0icGF0aDQ5MTIzIiBpbmtzY2FwZTpjb25uZWN0b3ItY3VydmF0dXJlPSIwIiBzdHlsZT0iZmlsbDojRkZGRkZGOyIgZD0iTTQuNzQsNTQuMWMwLDAuNDgtMC4wNiwwLjktMC4xOCwxLjI3ICAgICAgYy0wLjEyLDAuMzYtMC4yOSwwLjY2LTAuNTEsMC45MWMtMC4yMSwwLjI0LTAuNDYsMC40Mi0wLjc0LDAuNTRjLTAuMjksMC4xMy0wLjYsMC4xOS0wLjk0LDAuMTlzLTAuNjUtMC4wNi0wLjk0LTAuMTkgICAgICBjLTAuMjgtMC4xMi0wLjUzLTAuMy0wLjc1LTAuNTRjLTAuMjEtMC4yNS0wLjM4LTAuNTUtMC41LTAuOTFDMC4wNiw1NSwwLDU0LjU4LDAsNTQuMWMwLTAuNDgsMC4wNi0wLjksMC4xOC0xLjI2ICAgICAgczAuMjktMC42NywwLjUtMC45MWMwLjIyLTAuMjQsMC40Ny0wLjQyLDAuNzUtMC41NWMwLjI5LTAuMTMsMC42LTAuMTksMC45NC0wLjE5czAuNjUsMC4wNiwwLjk0LDAuMTkgICAgICBjMC4yOCwwLjEzLDAuNTMsMC4zMSwwLjc0LDAuNTVjMC4yMiwwLjI0LDAuMzksMC41NSwwLjUxLDAuOTFDNC42OCw1My4yLDQuNzQsNTMuNjIsNC43NCw1NC4xeiBNMi4zNSw1Ni4yNSAgICAgIGMwLjE5LDAsMC4zNy0wLjAzLDAuNTQtMC4xMWMwLjE3LTAuMDcsMC4zMy0wLjIsMC40Ni0wLjM2YzAuMTQtMC4xNywwLjI1LTAuNCwwLjMyLTAuNjdjMC4wOC0wLjI4LDAuMTItMC42MSwwLjEzLTEuMDEgICAgICBjLTAuMDEtMC4zOS0wLjA1LTAuNzEtMC4xMi0wLjk4Yy0wLjA4LTAuMjctMC4xOC0wLjUtMC4zMS0wLjY3Yy0wLjEzLTAuMTgtMC4yOC0wLjMtMC40NS0wLjM4Yy0wLjE3LTAuMDgtMC4zNC0wLjExLTAuNTMtMC4xMSAgICAgIGMtMC4xOSwwLTAuMzcsMC4wMy0wLjU0LDAuMWMtMC4xOCwwLjA4LTAuMzMsMC4yLTAuNDcsMC4zN2MtMC4xMywwLjE3LTAuMjQsMC4zOS0wLjMyLDAuNjdjLTAuMDcsMC4yNy0wLjExLDAuNi0wLjEyLDEgICAgICBjMC4wMSwwLjM5LDAuMDUsMC43MiwwLjEyLDAuOTljMC4wOCwwLjI3LDAuMTgsMC40OSwwLjMxLDAuNjdjMC4xMywwLjE3LDAuMjgsMC4yOSwwLjQ1LDAuMzdDMS45OCw1Ni4yMSwyLjE2LDU2LjI1LDIuMzUsNTYuMjUgICAgICB6Ii8+JiN4YTsJCQk8L2c+JiN4YTsJCQk8ZyBpZD0ic2hhcGU0MDAzLTI2IiB0cmFuc2Zvcm09InRyYW5zbGF0ZSgxNC45Nzg3LC0wLjAzODM4OTIpIj4mI3hhOwkJCQk8dGl0bGUgaWQ9InRpdGxlNDkxMjYiPlNoZWV0LjQwMDM8L3RpdGxlPiYjeGE7CQkJCTxwYXRoIGlkPSJwYXRoNDkxMjgiIGlua3NjYXBlOmNvbm5lY3Rvci1jdXJ2YXR1cmU9IjAiIHN0eWxlPSJmaWxsOiNGRkZGRkY7IiBkPSJNNC4xMSw1MS4zMnY1LjY5SDMuMTdsLTIuMjMtMy45MnYzLjkySDB2LTUuNjkgICAgICBoMC45NGwyLjIzLDMuOTJ2LTMuOTJMNC4xMSw1MS4zMnoiLz4mI3hhOwkJCTwvZz4mI3hhOwkJPC9nPiYjeGE7CTwvZz4mI3hhOzwvZz4mI3hhOzwvc3ZnPg==;" parent="1" vertex="1">
          <mxGeometry x="340" y="255.5" width="26.23" height="34" as="geometry" />
        </mxCell>
        <mxCell id="4dynubgF51ZRnNJFd6d_-334" value="" style="edgeStyle=orthogonalEdgeStyle;rounded=0;orthogonalLoop=1;jettySize=auto;html=1;fillColor=#f5f5f5;strokeColor=#666666;" parent="1" source="4dynubgF51ZRnNJFd6d_-324" target="4dynubgF51ZRnNJFd6d_-301" edge="1">
          <mxGeometry relative="1" as="geometry" />
        </mxCell>
        <mxCell id="4dynubgF51ZRnNJFd6d_-324" value="" style="sketch=0;outlineConnect=0;fontColor=#232F3E;gradientColor=none;fillColor=#7AA116;strokeColor=none;dashed=0;verticalLabelPosition=bottom;verticalAlign=top;align=center;html=1;fontSize=12;fontStyle=0;aspect=fixed;pointerEvents=1;shape=mxgraph.aws4.iot_analytics_pipeline;" parent="1" vertex="1">
          <mxGeometry x="640" y="70" width="100.29" height="54" as="geometry" />
        </mxCell>
        <mxCell id="4dynubgF51ZRnNJFd6d_-337" value="Pipeline" style="text;strokeColor=none;align=center;fillColor=none;html=1;verticalAlign=middle;whiteSpace=wrap;rounded=0;fontColor=#4a4a4a;" parent="1" vertex="1">
          <mxGeometry x="660.1500000000001" y="116" width="60" height="30" as="geometry" />
        </mxCell>
        <mxCell id="4dynubgF51ZRnNJFd6d_-340" value="Esteira deploy Aws/Pipeline/CodeCommit" style="text;strokeColor=none;align=center;fillColor=none;html=1;verticalAlign=middle;whiteSpace=wrap;rounded=0;" parent="1" vertex="1">
          <mxGeometry x="480" y="40" width="240" height="30" as="geometry" />
        </mxCell>
      </root>
    </mxGraphModel>
  </diagram>
</mxfile>
